<svg width="1038" height="1236" viewBox="0 0 1038 1236" fill="none" xmlns="http://www.w3.org/2000/svg">
<g id="FigmaChangan">
<g id="道观">
<circle id="Ellipse 1" cx="183.5" cy="408.5" r="5.5" fill="black"/>
<circle id="Ellipse 2" cx="243.5" cy="408.5" r="5.5" fill="black"/>
<circle id="Ellipse 3" cx="277.5" cy="318.5" r="5.5" fill="black"/>
<circle id="Ellipse 4" cx="369.5" cy="408.5" r="5.5" fill="black"/>
<circle id="Ellipse 5" cx="372.5" cy="521.5" r="5.5" fill="black"/>
<circle id="Ellipse 6" cx="215.5" cy="568.5" r="5.5" fill="black"/>
<circle id="Ellipse 7" cx="183.5" cy="720.5" r="5.5" fill="black"/>
<circle id="Ellipse 8" cx="185.5" cy="748.5" r="5.5" fill="black"/>
<circle id="Ellipse 9" cx="185.5" cy="800.5" r="5.5" fill="black"/>
<circle id="Ellipse 10" cx="371.5" cy="820.5" r="5.5" fill="black"/>
<circle id="Ellipse 11" cx="482.5" cy="810.5" r="5.5" fill="black"/>
<circle id="Ellipse 12" cx="466.5" cy="798.5" r="5.5" fill="black"/>
<circle id="Ellipse 13" cx="466.5" cy="820.5" r="5.5" fill="black"/>
<circle id="Ellipse 14" cx="479.5" cy="902.5" r="5.5" fill="black"/>
<circle id="Ellipse 15" cx="540.5" cy="952.5" r="5.5" fill="black"/>
<circle id="Ellipse 16" cx="584.5" cy="913.5" r="5.5" fill="black"/>
<circle id="Ellipse 17" cx="617.5" cy="913.5" r="5.5" fill="black"/>
<circle id="Ellipse 18" cx="658.5" cy="818.5" r="5.5" fill="black"/>
<circle id="Ellipse 19" cx="677.5" cy="818.5" r="5.5" fill="black"/>
<circle id="Ellipse 20" cx="703.5" cy="817.5" r="5.5" fill="black"/>
<circle id="Ellipse 21" cx="583.5" cy="769.5" r="5.5" fill="black"/>
<circle id="Ellipse 22" cx="599.5" cy="699.5" r="5.5" fill="black"/>
<circle id="Ellipse 23" cx="647.5" cy="717.5" r="5.5" fill="black"/>
<circle id="Ellipse 24" cx="666.5" cy="715.5" r="5.5" fill="black"/>
<circle id="Ellipse 25" cx="749.5" cy="699.5" r="5.5" fill="black"/>
<circle id="Ellipse 26" cx="599.5" cy="620.5" r="5.5" fill="black"/>
<circle id="Ellipse 27" cx="527.5" cy="622.5" r="5.5" fill="black"/>
<circle id="Ellipse 28" cx="695.5" cy="598.5" r="5.5" fill="black"/>
<circle id="Ellipse 29" cx="711.5" cy="598.5" r="5.5" fill="black"/>
<circle id="Ellipse 30" cx="647.5" cy="567.5" r="5.5" fill="black"/>
<circle id="Ellipse 31" cx="871.5" cy="648.5" r="5.5" fill="black"/>
<circle id="Ellipse 32" cx="876.5" cy="746.5" r="5.5" fill="black"/>
<circle id="Ellipse 33" cx="838.5" cy="379.5" r="5.5" fill="black"/>
<circle id="Ellipse 34" cx="742.5" cy="352.5" r="5.5" fill="black"/>
</g>
<g id="摩尼教">
<rect id="Rectangle 65" x="116.5" y="375.5" width="10" height="10" stroke="black"/>
<rect id="Rectangle 66" x="158.5" y="451.5" width="10" height="10" stroke="black"/>
<rect id="Rectangle 67" x="212.5" y="527.5" width="10" height="10" stroke="black"/>
<rect id="Rectangle 68" x="246.5" y="561.5" width="10" height="10" stroke="black"/>
<rect id="Rectangle 69" x="300.5" y="563.5" width="10" height="10" stroke="black"/>
<rect id="Rectangle 70" x="843.5" y="718.5" width="10" height="10" stroke="black"/>
</g>
<g id="佛寺">
<g id="Group 3">
<path id="Vector" d="M320.049 315.097C320.177 313.345 320.291 311.604 317.635 312.079" stroke="black" stroke-width="1.81055" stroke-linecap="round" stroke-linejoin="round"/>
<path id="Vector_2" d="M323.67 312.381C323.727 314.667 322.747 315.733 320.348 315.419C318.169 315.134 316.77 315.905 317.031 318.416" stroke="black" stroke-width="1.81055" stroke-linecap="round" stroke-linejoin="round"/>
<path id="Vector_3" d="M320.351 315.7C319.999 317.446 319.846 319.051 322.463 318.718" stroke="black" stroke-width="1.81055" stroke-linecap="round" stroke-linejoin="round"/>
</g>
<g id="Group 4">
<path id="Vector_4" d="M275.049 350.097C275.177 348.345 275.291 346.604 272.635 347.079" stroke="black" stroke-width="1.81055" stroke-linecap="round" stroke-linejoin="round"/>
<path id="Vector_5" d="M278.67 347.381C278.727 349.667 277.747 350.733 275.348 350.419C273.169 350.134 271.77 350.905 272.031 353.416" stroke="black" stroke-width="1.81055" stroke-linecap="round" stroke-linejoin="round"/>
<path id="Vector_6" d="M275.351 350.7C274.999 352.446 274.846 354.051 277.463 353.718" stroke="black" stroke-width="1.81055" stroke-linecap="round" stroke-linejoin="round"/>
</g>
<g id="Group 5">
<path id="Vector_7" d="M217.049 350.097C217.177 348.345 217.291 346.604 214.635 347.079" stroke="black" stroke-width="1.81055" stroke-linecap="round" stroke-linejoin="round"/>
<path id="Vector_8" d="M220.67 347.381C220.727 349.667 219.747 350.733 217.348 350.419C215.169 350.134 213.77 350.905 214.031 353.416" stroke="black" stroke-width="1.81055" stroke-linecap="round" stroke-linejoin="round"/>
<path id="Vector_9" d="M217.351 350.7C216.999 352.446 216.846 354.051 219.463 353.718" stroke="black" stroke-width="1.81055" stroke-linecap="round" stroke-linejoin="round"/>
</g>
<g id="Group 6">
<path id="Vector_10" d="M154.049 377.097C154.177 375.345 154.291 373.604 151.635 374.079" stroke="black" stroke-width="1.81055" stroke-linecap="round" stroke-linejoin="round"/>
<path id="Vector_11" d="M157.67 374.381C157.727 376.667 156.747 377.733 154.348 377.419C152.169 377.134 150.77 377.905 151.031 380.416" stroke="black" stroke-width="1.81055" stroke-linecap="round" stroke-linejoin="round"/>
<path id="Vector_12" d="M154.351 377.7C153.999 379.446 153.846 381.051 156.463 380.718" stroke="black" stroke-width="1.81055" stroke-linecap="round" stroke-linejoin="round"/>
</g>
<g id="Group 7">
<path id="Vector_13" d="M277.049 377.097C277.177 375.345 277.291 373.604 274.635 374.079" stroke="black" stroke-width="1.81055" stroke-linecap="round" stroke-linejoin="round"/>
<path id="Vector_14" d="M280.67 374.381C280.727 376.667 279.747 377.733 277.348 377.419C275.169 377.134 273.77 377.905 274.031 380.416" stroke="black" stroke-width="1.81055" stroke-linecap="round" stroke-linejoin="round"/>
<path id="Vector_15" d="M277.351 377.7C276.999 379.446 276.846 381.051 279.463 380.718" stroke="black" stroke-width="1.81055" stroke-linecap="round" stroke-linejoin="round"/>
</g>
<g id="Group 8">
<path id="Vector_16" d="M279.049 406.097C279.177 404.345 279.291 402.604 276.635 403.079" stroke="black" stroke-width="1.81055" stroke-linecap="round" stroke-linejoin="round"/>
<path id="Vector_17" d="M282.67 403.381C282.727 405.667 281.747 406.733 279.348 406.419C277.169 406.134 275.77 406.905 276.031 409.416" stroke="black" stroke-width="1.81055" stroke-linecap="round" stroke-linejoin="round"/>
<path id="Vector_18" d="M279.351 406.7C278.999 408.446 278.846 410.051 281.463 409.718" stroke="black" stroke-width="1.81055" stroke-linecap="round" stroke-linejoin="round"/>
</g>
<g id="Group 9">
<path id="Vector_19" d="M266.049 405.097C266.177 403.345 266.291 401.604 263.635 402.079" stroke="black" stroke-width="1.81055" stroke-linecap="round" stroke-linejoin="round"/>
<path id="Vector_20" d="M269.67 402.381C269.727 404.667 268.747 405.733 266.348 405.419C264.169 405.134 262.77 405.905 263.031 408.416" stroke="black" stroke-width="1.81055" stroke-linecap="round" stroke-linejoin="round"/>
<path id="Vector_21" d="M266.351 405.7C265.999 407.446 265.846 409.051 268.463 408.718" stroke="black" stroke-width="1.81055" stroke-linecap="round" stroke-linejoin="round"/>
</g>
<g id="Group 10">
<path id="Vector_22" d="M271.049 439.097C271.177 437.345 271.291 435.604 268.635 436.079" stroke="black" stroke-width="1.81055" stroke-linecap="round" stroke-linejoin="round"/>
<path id="Vector_23" d="M274.67 436.381C274.727 438.667 273.747 439.733 271.348 439.419C269.169 439.134 267.77 439.905 268.031 442.416" stroke="black" stroke-width="1.81055" stroke-linecap="round" stroke-linejoin="round"/>
<path id="Vector_24" d="M271.351 439.7C270.999 441.446 270.846 443.051 273.463 442.718" stroke="black" stroke-width="1.81055" stroke-linecap="round" stroke-linejoin="round"/>
</g>
<g id="Group 11">
<path id="Vector_25" d="M263.049 480.097C263.177 478.345 263.291 476.604 260.635 477.079" stroke="black" stroke-width="1.81055" stroke-linecap="round" stroke-linejoin="round"/>
<path id="Vector_26" d="M266.67 477.381C266.727 479.667 265.747 480.733 263.348 480.419C261.169 480.134 259.77 480.905 260.031 483.416" stroke="black" stroke-width="1.81055" stroke-linecap="round" stroke-linejoin="round"/>
<path id="Vector_27" d="M263.351 480.7C262.999 482.446 262.846 484.051 265.463 483.718" stroke="black" stroke-width="1.81055" stroke-linecap="round" stroke-linejoin="round"/>
</g>
<g id="Group 12">
<path id="Vector_28" d="M277.049 492.097C277.177 490.345 277.291 488.604 274.635 489.079" stroke="black" stroke-width="1.81055" stroke-linecap="round" stroke-linejoin="round"/>
<path id="Vector_29" d="M280.67 489.381C280.727 491.667 279.747 492.733 277.348 492.419C275.169 492.134 273.77 492.905 274.031 495.416" stroke="black" stroke-width="1.81055" stroke-linecap="round" stroke-linejoin="round"/>
<path id="Vector_30" d="M277.351 492.7C276.999 494.446 276.846 496.051 279.463 495.718" stroke="black" stroke-width="1.81055" stroke-linecap="round" stroke-linejoin="round"/>
</g>
<g id="Group 13">
<path id="Vector_31" d="M217.049 494.097C217.177 492.345 217.291 490.604 214.635 491.079" stroke="black" stroke-width="1.81055" stroke-linecap="round" stroke-linejoin="round"/>
<path id="Vector_32" d="M220.67 491.381C220.727 493.667 219.747 494.733 217.348 494.419C215.169 494.134 213.77 494.905 214.031 497.416" stroke="black" stroke-width="1.81055" stroke-linecap="round" stroke-linejoin="round"/>
<path id="Vector_33" d="M217.351 494.7C216.999 496.446 216.846 498.051 219.463 497.718" stroke="black" stroke-width="1.81055" stroke-linecap="round" stroke-linejoin="round"/>
</g>
<g id="Group 14">
<path id="Vector_34" d="M164.049 494.097C164.177 492.345 164.291 490.604 161.635 491.079" stroke="black" stroke-width="1.81055" stroke-linecap="round" stroke-linejoin="round"/>
<path id="Vector_35" d="M167.67 491.381C167.727 493.667 166.747 494.733 164.348 494.419C162.169 494.134 160.77 494.905 161.031 497.416" stroke="black" stroke-width="1.81055" stroke-linecap="round" stroke-linejoin="round"/>
<path id="Vector_36" d="M164.351 494.7C163.999 496.446 163.846 498.051 166.463 497.718" stroke="black" stroke-width="1.81055" stroke-linecap="round" stroke-linejoin="round"/>
</g>
<g id="Group 15">
<path id="Vector_37" d="M121.049 441.097C121.177 439.345 121.291 437.604 118.635 438.079" stroke="black" stroke-width="1.81055" stroke-linecap="round" stroke-linejoin="round"/>
<path id="Vector_38" d="M124.67 438.381C124.727 440.667 123.747 441.733 121.348 441.419C119.169 441.134 117.77 441.905 118.031 444.416" stroke="black" stroke-width="1.81055" stroke-linecap="round" stroke-linejoin="round"/>
<path id="Vector_39" d="M121.351 441.7C120.999 443.446 120.846 445.051 123.463 444.718" stroke="black" stroke-width="1.81055" stroke-linecap="round" stroke-linejoin="round"/>
</g>
<g id="Group 16">
<path id="Vector_40" d="M237.049 531.097C237.177 529.345 237.291 527.604 234.635 528.079" stroke="black" stroke-width="1.81055" stroke-linecap="round" stroke-linejoin="round"/>
<path id="Vector_41" d="M240.67 528.381C240.727 530.667 239.747 531.733 237.348 531.419C235.169 531.134 233.77 531.905 234.031 534.416" stroke="black" stroke-width="1.81055" stroke-linecap="round" stroke-linejoin="round"/>
<path id="Vector_42" d="M237.351 531.7C236.999 533.446 236.846 535.051 239.463 534.718" stroke="black" stroke-width="1.81055" stroke-linecap="round" stroke-linejoin="round"/>
</g>
<g id="Group 17">
<path id="Vector_43" d="M217.049 549.097C217.177 547.345 217.291 545.604 214.635 546.079" stroke="black" stroke-width="1.81055" stroke-linecap="round" stroke-linejoin="round"/>
<path id="Vector_44" d="M220.67 546.381C220.727 548.667 219.747 549.733 217.348 549.419C215.169 549.134 213.77 549.905 214.031 552.416" stroke="black" stroke-width="1.81055" stroke-linecap="round" stroke-linejoin="round"/>
<path id="Vector_45" d="M217.351 549.7C216.999 551.446 216.846 553.051 219.463 552.718" stroke="black" stroke-width="1.81055" stroke-linecap="round" stroke-linejoin="round"/>
</g>
<g id="Group 18">
<path id="Vector_46" d="M182.049 621.097C182.177 619.345 182.291 617.604 179.635 618.079" stroke="black" stroke-width="1.81055" stroke-linecap="round" stroke-linejoin="round"/>
<path id="Vector_47" d="M185.67 618.381C185.727 620.667 184.747 621.733 182.348 621.419C180.169 621.134 178.77 621.905 179.031 624.416" stroke="black" stroke-width="1.81055" stroke-linecap="round" stroke-linejoin="round"/>
<path id="Vector_48" d="M182.351 621.7C181.999 623.446 181.846 625.051 184.463 624.718" stroke="black" stroke-width="1.81055" stroke-linecap="round" stroke-linejoin="round"/>
</g>
<g id="Group 19">
<path id="Vector_49" d="M183.049 647.097C183.177 645.345 183.291 643.604 180.635 644.079" stroke="black" stroke-width="1.81055" stroke-linecap="round" stroke-linejoin="round"/>
<path id="Vector_50" d="M186.67 644.381C186.727 646.667 185.747 647.733 183.348 647.419C181.169 647.134 179.77 647.905 180.031 650.416" stroke="black" stroke-width="1.81055" stroke-linecap="round" stroke-linejoin="round"/>
<path id="Vector_51" d="M183.351 647.7C182.999 649.446 182.846 651.051 185.463 650.718" stroke="black" stroke-width="1.81055" stroke-linecap="round" stroke-linejoin="round"/>
</g>
<g id="Group 20">
<path id="Vector_52" d="M150.049 647.097C150.177 645.345 150.291 643.604 147.635 644.079" stroke="black" stroke-width="1.81055" stroke-linecap="round" stroke-linejoin="round"/>
<path id="Vector_53" d="M153.67 644.381C153.727 646.667 152.747 647.733 150.348 647.419C148.169 647.134 146.77 647.905 147.031 650.416" stroke="black" stroke-width="1.81055" stroke-linecap="round" stroke-linejoin="round"/>
<path id="Vector_54" d="M150.351 647.7C149.999 649.446 149.846 651.051 152.463 650.718" stroke="black" stroke-width="1.81055" stroke-linecap="round" stroke-linejoin="round"/>
</g>
<g id="Group 21">
<path id="Vector_55" d="M119.049 665.097C119.177 663.345 119.291 661.604 116.635 662.079" stroke="black" stroke-width="1.81055" stroke-linecap="round" stroke-linejoin="round"/>
<path id="Vector_56" d="M122.67 662.381C122.727 664.667 121.747 665.733 119.348 665.419C117.169 665.134 115.77 665.905 116.031 668.416" stroke="black" stroke-width="1.81055" stroke-linecap="round" stroke-linejoin="round"/>
<path id="Vector_57" d="M119.351 665.7C118.999 667.446 118.846 669.051 121.463 668.718" stroke="black" stroke-width="1.81055" stroke-linecap="round" stroke-linejoin="round"/>
</g>
<g id="Group 22">
<path id="Vector_58" d="M156.049 600.097C156.177 598.345 156.291 596.604 153.635 597.079" stroke="black" stroke-width="1.81055" stroke-linecap="round" stroke-linejoin="round"/>
<path id="Vector_59" d="M159.67 597.381C159.727 599.667 158.747 600.733 156.348 600.419C154.169 600.134 152.77 600.905 153.031 603.416" stroke="black" stroke-width="1.81055" stroke-linecap="round" stroke-linejoin="round"/>
<path id="Vector_60" d="M156.351 600.7C155.999 602.446 155.846 604.051 158.463 603.718" stroke="black" stroke-width="1.81055" stroke-linecap="round" stroke-linejoin="round"/>
</g>
<g id="Group 23">
<path id="Vector_61" d="M348.049 643.097C348.177 641.345 348.291 639.604 345.635 640.079" stroke="black" stroke-width="1.81055" stroke-linecap="round" stroke-linejoin="round"/>
<path id="Vector_62" d="M351.67 640.381C351.727 642.667 350.747 643.733 348.348 643.419C346.169 643.134 344.77 643.905 345.031 646.416" stroke="black" stroke-width="1.81055" stroke-linecap="round" stroke-linejoin="round"/>
<path id="Vector_63" d="M348.351 643.7C347.999 645.446 347.846 647.051 350.463 646.718" stroke="black" stroke-width="1.81055" stroke-linecap="round" stroke-linejoin="round"/>
</g>
<g id="Group 24">
<path id="Vector_64" d="M345.049 650.097C345.177 648.345 345.291 646.604 342.635 647.079" stroke="black" stroke-width="1.81055" stroke-linecap="round" stroke-linejoin="round"/>
<path id="Vector_65" d="M348.67 647.381C348.727 649.667 347.747 650.733 345.348 650.419C343.169 650.134 341.77 650.905 342.031 653.416" stroke="black" stroke-width="1.81055" stroke-linecap="round" stroke-linejoin="round"/>
<path id="Vector_66" d="M345.351 650.7C344.999 652.446 344.846 654.051 347.463 653.718" stroke="black" stroke-width="1.81055" stroke-linecap="round" stroke-linejoin="round"/>
</g>
<g id="Group 25">
<path id="Vector_67" d="M313.049 665.097C313.177 663.345 313.291 661.604 310.635 662.079" stroke="black" stroke-width="1.81055" stroke-linecap="round" stroke-linejoin="round"/>
<path id="Vector_68" d="M316.67 662.381C316.727 664.667 315.747 665.733 313.348 665.419C311.169 665.134 309.77 665.905 310.031 668.416" stroke="black" stroke-width="1.81055" stroke-linecap="round" stroke-linejoin="round"/>
<path id="Vector_69" d="M313.351 665.7C312.999 667.446 312.846 669.051 315.463 668.718" stroke="black" stroke-width="1.81055" stroke-linecap="round" stroke-linejoin="round"/>
</g>
<g id="Group 34">
<path id="Vector_70" d="M251.049 697.097C251.177 695.345 251.291 693.604 248.635 694.079" stroke="black" stroke-width="1.81055" stroke-linecap="round" stroke-linejoin="round"/>
<path id="Vector_71" d="M254.67 694.381C254.727 696.667 253.747 697.733 251.348 697.419C249.169 697.134 247.77 697.905 248.031 700.416" stroke="black" stroke-width="1.81055" stroke-linecap="round" stroke-linejoin="round"/>
<path id="Vector_72" d="M251.351 697.7C250.999 699.446 250.846 701.051 253.463 700.718" stroke="black" stroke-width="1.81055" stroke-linecap="round" stroke-linejoin="round"/>
</g>
<g id="Group 35">
<path id="Vector_73" d="M281.049 718.097C281.177 716.345 281.291 714.604 278.635 715.079" stroke="black" stroke-width="1.81055" stroke-linecap="round" stroke-linejoin="round"/>
<path id="Vector_74" d="M284.67 715.381C284.727 717.667 283.747 718.733 281.348 718.419C279.169 718.134 277.77 718.905 278.031 721.416" stroke="black" stroke-width="1.81055" stroke-linecap="round" stroke-linejoin="round"/>
<path id="Vector_75" d="M281.351 718.7C280.999 720.446 280.846 722.051 283.463 721.718" stroke="black" stroke-width="1.81055" stroke-linecap="round" stroke-linejoin="round"/>
</g>
<g id="Group 36">
<path id="Vector_76" d="M322.049 721.097C322.177 719.345 322.291 717.604 319.635 718.079" stroke="black" stroke-width="1.81055" stroke-linecap="round" stroke-linejoin="round"/>
<path id="Vector_77" d="M325.67 718.381C325.727 720.667 324.747 721.733 322.348 721.419C320.169 721.134 318.77 721.905 319.031 724.416" stroke="black" stroke-width="1.81055" stroke-linecap="round" stroke-linejoin="round"/>
<path id="Vector_78" d="M322.351 721.7C321.999 723.446 321.846 725.051 324.463 724.718" stroke="black" stroke-width="1.81055" stroke-linecap="round" stroke-linejoin="round"/>
</g>
<g id="Group 37">
<path id="Vector_79" d="M365.049 721.097C365.177 719.345 365.291 717.604 362.635 718.079" stroke="black" stroke-width="1.81055" stroke-linecap="round" stroke-linejoin="round"/>
<path id="Vector_80" d="M368.67 718.381C368.727 720.667 367.747 721.733 365.348 721.419C363.169 721.134 361.77 721.905 362.031 724.416" stroke="black" stroke-width="1.81055" stroke-linecap="round" stroke-linejoin="round"/>
<path id="Vector_81" d="M365.351 721.7C364.999 723.446 364.846 725.051 367.463 724.718" stroke="black" stroke-width="1.81055" stroke-linecap="round" stroke-linejoin="round"/>
</g>
<g id="Group 51">
<path id="Vector_82" d="M406.049 721.097C406.177 719.345 406.291 717.604 403.635 718.079" stroke="black" stroke-width="1.81055" stroke-linecap="round" stroke-linejoin="round"/>
<path id="Vector_83" d="M409.67 718.381C409.727 720.667 408.747 721.733 406.348 721.419C404.169 721.134 402.77 721.905 403.031 724.416" stroke="black" stroke-width="1.81055" stroke-linecap="round" stroke-linejoin="round"/>
<path id="Vector_84" d="M406.351 721.7C405.999 723.446 405.846 725.051 408.463 724.718" stroke="black" stroke-width="1.81055" stroke-linecap="round" stroke-linejoin="round"/>
</g>
<g id="Group 52">
<path id="Vector_85" d="M468.049 723.097C468.177 721.345 468.291 719.604 465.635 720.079" stroke="black" stroke-width="1.81055" stroke-linecap="round" stroke-linejoin="round"/>
<path id="Vector_86" d="M471.67 720.381C471.727 722.667 470.747 723.733 468.348 723.419C466.169 723.134 464.77 723.905 465.031 726.416" stroke="black" stroke-width="1.81055" stroke-linecap="round" stroke-linejoin="round"/>
<path id="Vector_87" d="M468.351 723.7C467.999 725.446 467.846 727.051 470.463 726.718" stroke="black" stroke-width="1.81055" stroke-linecap="round" stroke-linejoin="round"/>
</g>
<g id="Group 53">
<path id="Vector_88" d="M481.049 698.097C481.177 696.345 481.291 694.604 478.635 695.079" stroke="black" stroke-width="1.81055" stroke-linecap="round" stroke-linejoin="round"/>
<path id="Vector_89" d="M484.67 695.381C484.727 697.667 483.747 698.733 481.348 698.419C479.169 698.134 477.77 698.905 478.031 701.416" stroke="black" stroke-width="1.81055" stroke-linecap="round" stroke-linejoin="round"/>
<path id="Vector_90" d="M481.351 698.7C480.999 700.446 480.846 702.051 483.463 701.718" stroke="black" stroke-width="1.81055" stroke-linecap="round" stroke-linejoin="round"/>
</g>
<g id="Group 54">
<path id="Vector_91" d="M401.049 666.097C401.177 664.345 401.291 662.604 398.635 663.079" stroke="black" stroke-width="1.81055" stroke-linecap="round" stroke-linejoin="round"/>
<path id="Vector_92" d="M404.67 663.381C404.727 665.667 403.747 666.733 401.348 666.419C399.169 666.134 397.77 666.905 398.031 669.416" stroke="black" stroke-width="1.81055" stroke-linecap="round" stroke-linejoin="round"/>
<path id="Vector_93" d="M401.351 666.7C400.999 668.446 400.846 670.051 403.463 669.718" stroke="black" stroke-width="1.81055" stroke-linecap="round" stroke-linejoin="round"/>
</g>
<g id="Group 55">
<path id="Vector_94" d="M405.049 622.097C405.177 620.345 405.291 618.604 402.635 619.079" stroke="black" stroke-width="1.81055" stroke-linecap="round" stroke-linejoin="round"/>
<path id="Vector_95" d="M408.67 619.381C408.727 621.667 407.747 622.733 405.348 622.419C403.169 622.134 401.77 622.905 402.031 625.416" stroke="black" stroke-width="1.81055" stroke-linecap="round" stroke-linejoin="round"/>
<path id="Vector_96" d="M405.351 622.7C404.999 624.446 404.846 626.051 407.463 625.718" stroke="black" stroke-width="1.81055" stroke-linecap="round" stroke-linejoin="round"/>
</g>
<g id="Group 56">
<path id="Vector_97" d="M403.049 600.097C403.177 598.345 403.291 596.604 400.635 597.079" stroke="black" stroke-width="1.81055" stroke-linecap="round" stroke-linejoin="round"/>
<path id="Vector_98" d="M406.67 597.381C406.727 599.667 405.747 600.733 403.348 600.419C401.169 600.134 399.77 600.905 400.031 603.416" stroke="black" stroke-width="1.81055" stroke-linecap="round" stroke-linejoin="round"/>
<path id="Vector_99" d="M403.351 600.7C402.999 602.446 402.846 604.051 405.463 603.718" stroke="black" stroke-width="1.81055" stroke-linecap="round" stroke-linejoin="round"/>
</g>
<g id="Group 57">
<path id="Vector_100" d="M528.049 649.097C528.177 647.345 528.291 645.604 525.635 646.079" stroke="black" stroke-width="1.81055" stroke-linecap="round" stroke-linejoin="round"/>
<path id="Vector_101" d="M531.67 646.381C531.727 648.667 530.747 649.733 528.348 649.419C526.169 649.134 524.77 649.905 525.031 652.416" stroke="black" stroke-width="1.81055" stroke-linecap="round" stroke-linejoin="round"/>
<path id="Vector_102" d="M528.351 649.7C527.999 651.446 527.846 653.051 530.463 652.718" stroke="black" stroke-width="1.81055" stroke-linecap="round" stroke-linejoin="round"/>
</g>
<g id="Group 58">
<path id="Vector_103" d="M547.049 666.097C547.177 664.345 547.291 662.604 544.635 663.079" stroke="black" stroke-width="1.81055" stroke-linecap="round" stroke-linejoin="round"/>
<path id="Vector_104" d="M550.67 663.381C550.727 665.667 549.747 666.733 547.348 666.419C545.169 666.134 543.77 666.905 544.031 669.416" stroke="black" stroke-width="1.81055" stroke-linecap="round" stroke-linejoin="round"/>
<path id="Vector_105" d="M547.351 666.7C546.999 668.446 546.846 670.051 549.463 669.718" stroke="black" stroke-width="1.81055" stroke-linecap="round" stroke-linejoin="round"/>
</g>
<g id="Group 59">
<path id="Vector_106" d="M605.049 648.097C605.177 646.345 605.291 644.604 602.635 645.079" stroke="black" stroke-width="1.81055" stroke-linecap="round" stroke-linejoin="round"/>
<path id="Vector_107" d="M608.67 645.381C608.727 647.667 607.747 648.733 605.348 648.419C603.169 648.134 601.77 648.905 602.031 651.416" stroke="black" stroke-width="1.81055" stroke-linecap="round" stroke-linejoin="round"/>
<path id="Vector_108" d="M605.351 648.7C604.999 650.446 604.846 652.051 607.463 651.718" stroke="black" stroke-width="1.81055" stroke-linecap="round" stroke-linejoin="round"/>
</g>
<g id="Group 60">
<path id="Vector_109" d="M651.049 668.097C651.177 666.345 651.291 664.604 648.635 665.079" stroke="black" stroke-width="1.81055" stroke-linecap="round" stroke-linejoin="round"/>
<path id="Vector_110" d="M654.67 665.381C654.727 667.667 653.747 668.733 651.348 668.419C649.169 668.134 647.77 668.905 648.031 671.416" stroke="black" stroke-width="1.81055" stroke-linecap="round" stroke-linejoin="round"/>
<path id="Vector_111" d="M651.351 668.7C650.999 670.446 650.846 672.051 653.463 671.718" stroke="black" stroke-width="1.81055" stroke-linecap="round" stroke-linejoin="round"/>
</g>
<g id="Group 61">
<path id="Vector_112" d="M676.049 598.097C676.177 596.345 676.291 594.604 673.635 595.079" stroke="black" stroke-width="1.81055" stroke-linecap="round" stroke-linejoin="round"/>
<path id="Vector_113" d="M679.67 595.381C679.727 597.667 678.747 598.733 676.348 598.419C674.169 598.134 672.77 598.905 673.031 601.416" stroke="black" stroke-width="1.81055" stroke-linecap="round" stroke-linejoin="round"/>
<path id="Vector_114" d="M676.351 598.7C675.999 600.446 675.846 602.051 678.463 601.718" stroke="black" stroke-width="1.81055" stroke-linecap="round" stroke-linejoin="round"/>
</g>
<g id="Group 62">
<path id="Vector_115" d="M678.049 618.097C678.177 616.345 678.291 614.604 675.635 615.079" stroke="black" stroke-width="1.81055" stroke-linecap="round" stroke-linejoin="round"/>
<path id="Vector_116" d="M681.67 615.381C681.727 617.667 680.747 618.733 678.348 618.419C676.169 618.134 674.77 618.905 675.031 621.416" stroke="black" stroke-width="1.81055" stroke-linecap="round" stroke-linejoin="round"/>
<path id="Vector_117" d="M678.351 618.7C677.999 620.446 677.846 622.051 680.463 621.718" stroke="black" stroke-width="1.81055" stroke-linecap="round" stroke-linejoin="round"/>
</g>
<g id="Group 63">
<path id="Vector_118" d="M777.049 699.097C777.177 697.345 777.291 695.604 774.635 696.079" stroke="black" stroke-width="1.81055" stroke-linecap="round" stroke-linejoin="round"/>
<path id="Vector_119" d="M780.67 696.381C780.727 698.667 779.747 699.733 777.348 699.419C775.169 699.134 773.77 699.905 774.031 702.416" stroke="black" stroke-width="1.81055" stroke-linecap="round" stroke-linejoin="round"/>
<path id="Vector_120" d="M777.351 699.7C776.999 701.446 776.846 703.051 779.463 702.718" stroke="black" stroke-width="1.81055" stroke-linecap="round" stroke-linejoin="round"/>
</g>
<g id="Group 64">
<path id="Vector_121" d="M839.049 670.097C839.177 668.345 839.291 666.604 836.635 667.079" stroke="black" stroke-width="1.81055" stroke-linecap="round" stroke-linejoin="round"/>
<path id="Vector_122" d="M842.67 667.381C842.727 669.667 841.747 670.733 839.348 670.419C837.169 670.134 835.77 670.905 836.031 673.416" stroke="black" stroke-width="1.81055" stroke-linecap="round" stroke-linejoin="round"/>
<path id="Vector_123" d="M839.351 670.7C838.999 672.446 838.846 674.051 841.463 673.718" stroke="black" stroke-width="1.81055" stroke-linecap="round" stroke-linejoin="round"/>
</g>
<g id="Group 65">
<path id="Vector_124" d="M866.049 670.097C866.177 668.345 866.291 666.604 863.635 667.079" stroke="black" stroke-width="1.81055" stroke-linecap="round" stroke-linejoin="round"/>
<path id="Vector_125" d="M869.67 667.381C869.727 669.667 868.747 670.733 866.348 670.419C864.169 670.134 862.77 670.905 863.031 673.416" stroke="black" stroke-width="1.81055" stroke-linecap="round" stroke-linejoin="round"/>
<path id="Vector_126" d="M866.351 670.7C865.999 672.446 865.846 674.051 868.463 673.718" stroke="black" stroke-width="1.81055" stroke-linecap="round" stroke-linejoin="round"/>
</g>
<g id="Group 66">
<path id="Vector_127" d="M898.049 623.097C898.177 621.345 898.291 619.604 895.635 620.079" stroke="black" stroke-width="1.81055" stroke-linecap="round" stroke-linejoin="round"/>
<path id="Vector_128" d="M901.67 620.381C901.727 622.667 900.747 623.733 898.348 623.419C896.169 623.134 894.77 623.905 895.031 626.416" stroke="black" stroke-width="1.81055" stroke-linecap="round" stroke-linejoin="round"/>
<path id="Vector_129" d="M898.351 623.7C897.999 625.446 897.846 627.051 900.463 626.718" stroke="black" stroke-width="1.81055" stroke-linecap="round" stroke-linejoin="round"/>
</g>
<g id="Group 97">
<path id="Vector_130" d="M877.049 769.097C877.177 767.345 877.291 765.604 874.635 766.079" stroke="black" stroke-width="1.81055" stroke-linecap="round" stroke-linejoin="round"/>
<path id="Vector_131" d="M880.67 766.381C880.727 768.667 879.747 769.733 877.348 769.419C875.169 769.134 873.77 769.905 874.031 772.416" stroke="black" stroke-width="1.81055" stroke-linecap="round" stroke-linejoin="round"/>
<path id="Vector_132" d="M877.351 769.7C876.999 771.446 876.846 773.051 879.463 772.718" stroke="black" stroke-width="1.81055" stroke-linecap="round" stroke-linejoin="round"/>
</g>
<g id="Group 67">
<path id="Vector_133" d="M743.049 566.097C743.177 564.345 743.291 562.604 740.635 563.079" stroke="black" stroke-width="1.81055" stroke-linecap="round" stroke-linejoin="round"/>
<path id="Vector_134" d="M746.67 563.381C746.727 565.667 745.747 566.733 743.348 566.419C741.169 566.134 739.77 566.905 740.031 569.416" stroke="black" stroke-width="1.81055" stroke-linecap="round" stroke-linejoin="round"/>
<path id="Vector_135" d="M743.351 566.7C742.999 568.446 742.846 570.051 745.463 569.718" stroke="black" stroke-width="1.81055" stroke-linecap="round" stroke-linejoin="round"/>
</g>
<g id="Group 68">
<path id="Vector_136" d="M708.049 568.097C708.177 566.345 708.291 564.604 705.635 565.079" stroke="black" stroke-width="1.81055" stroke-linecap="round" stroke-linejoin="round"/>
<path id="Vector_137" d="M711.67 565.381C711.727 567.667 710.747 568.733 708.348 568.419C706.169 568.134 704.77 568.905 705.031 571.416" stroke="black" stroke-width="1.81055" stroke-linecap="round" stroke-linejoin="round"/>
<path id="Vector_138" d="M708.351 568.7C707.999 570.446 707.846 572.051 710.463 571.718" stroke="black" stroke-width="1.81055" stroke-linecap="round" stroke-linejoin="round"/>
</g>
<g id="Group 69">
<path id="Vector_139" d="M706.049 518.097C706.177 516.345 706.291 514.604 703.635 515.079" stroke="black" stroke-width="1.81055" stroke-linecap="round" stroke-linejoin="round"/>
<path id="Vector_140" d="M709.67 515.381C709.727 517.667 708.747 518.733 706.348 518.419C704.169 518.134 702.77 518.905 703.031 521.416" stroke="black" stroke-width="1.81055" stroke-linecap="round" stroke-linejoin="round"/>
<path id="Vector_141" d="M706.351 518.7C705.999 520.446 705.846 522.051 708.463 521.718" stroke="black" stroke-width="1.81055" stroke-linecap="round" stroke-linejoin="round"/>
</g>
<g id="Group 70">
<path id="Vector_142" d="M743.049 520.097C743.177 518.345 743.291 516.604 740.635 517.079" stroke="black" stroke-width="1.81055" stroke-linecap="round" stroke-linejoin="round"/>
<path id="Vector_143" d="M746.67 517.381C746.727 519.667 745.747 520.733 743.348 520.419C741.169 520.134 739.77 520.905 740.031 523.416" stroke="black" stroke-width="1.81055" stroke-linecap="round" stroke-linejoin="round"/>
<path id="Vector_144" d="M743.351 520.7C742.999 522.446 742.846 524.051 745.463 523.718" stroke="black" stroke-width="1.81055" stroke-linecap="round" stroke-linejoin="round"/>
</g>
<g id="Group 71">
<path id="Vector_145" d="M766.049 522.097C766.177 520.345 766.291 518.604 763.635 519.079" stroke="black" stroke-width="1.81055" stroke-linecap="round" stroke-linejoin="round"/>
<path id="Vector_146" d="M769.67 519.381C769.727 521.667 768.747 522.733 766.348 522.419C764.169 522.134 762.77 522.905 763.031 525.416" stroke="black" stroke-width="1.81055" stroke-linecap="round" stroke-linejoin="round"/>
<path id="Vector_147" d="M766.351 522.7C765.999 524.446 765.846 526.051 768.463 525.718" stroke="black" stroke-width="1.81055" stroke-linecap="round" stroke-linejoin="round"/>
</g>
<g id="Group 91">
<path id="Vector_148" d="M805.049 403.097C805.177 401.345 805.291 399.604 802.635 400.079" stroke="black" stroke-width="1.81055" stroke-linecap="round" stroke-linejoin="round"/>
<path id="Vector_149" d="M808.67 400.381C808.727 402.667 807.747 403.733 805.348 403.419C803.169 403.134 801.77 403.905 802.031 406.416" stroke="black" stroke-width="1.81055" stroke-linecap="round" stroke-linejoin="round"/>
<path id="Vector_150" d="M805.351 403.7C804.999 405.446 804.846 407.051 807.463 406.718" stroke="black" stroke-width="1.81055" stroke-linecap="round" stroke-linejoin="round"/>
</g>
<g id="Group 92">
<path id="Vector_151" d="M657.049 439.097C657.177 437.345 657.291 435.604 654.635 436.079" stroke="black" stroke-width="1.81055" stroke-linecap="round" stroke-linejoin="round"/>
<path id="Vector_152" d="M660.67 436.381C660.727 438.667 659.747 439.733 657.348 439.419C655.169 439.134 653.77 439.905 654.031 442.416" stroke="black" stroke-width="1.81055" stroke-linecap="round" stroke-linejoin="round"/>
<path id="Vector_153" d="M657.351 439.7C656.999 441.446 656.846 443.051 659.463 442.718" stroke="black" stroke-width="1.81055" stroke-linecap="round" stroke-linejoin="round"/>
</g>
<g id="Group 96">
<path id="Vector_154" d="M877.049 403.097C877.177 401.345 877.291 399.604 874.635 400.079" stroke="black" stroke-width="1.81055" stroke-linecap="round" stroke-linejoin="round"/>
<path id="Vector_155" d="M880.67 400.381C880.727 402.667 879.747 403.733 877.348 403.419C875.169 403.134 873.77 403.905 874.031 406.416" stroke="black" stroke-width="1.81055" stroke-linecap="round" stroke-linejoin="round"/>
<path id="Vector_156" d="M877.351 403.7C876.999 405.446 876.846 407.051 879.463 406.718" stroke="black" stroke-width="1.81055" stroke-linecap="round" stroke-linejoin="round"/>
</g>
<g id="Group 93">
<path id="Vector_157" d="M662.049 315.097C662.177 313.345 662.291 311.604 659.635 312.079" stroke="black" stroke-width="1.81055" stroke-linecap="round" stroke-linejoin="round"/>
<path id="Vector_158" d="M665.67 312.381C665.727 314.667 664.747 315.733 662.348 315.419C660.169 315.134 658.77 315.905 659.031 318.416" stroke="black" stroke-width="1.81055" stroke-linecap="round" stroke-linejoin="round"/>
<path id="Vector_159" d="M662.351 315.7C661.999 317.446 661.846 319.051 664.463 318.718" stroke="black" stroke-width="1.81055" stroke-linecap="round" stroke-linejoin="round"/>
</g>
<g id="Group 94">
<path id="Vector_160" d="M711.049 317.097C711.177 315.345 711.291 313.604 708.635 314.079" stroke="black" stroke-width="1.81055" stroke-linecap="round" stroke-linejoin="round"/>
<path id="Vector_161" d="M714.67 314.381C714.727 316.667 713.747 317.733 711.348 317.419C709.169 317.134 707.77 317.905 708.031 320.416" stroke="black" stroke-width="1.81055" stroke-linecap="round" stroke-linejoin="round"/>
<path id="Vector_162" d="M711.351 317.7C710.999 319.446 710.846 321.051 713.463 320.718" stroke="black" stroke-width="1.81055" stroke-linecap="round" stroke-linejoin="round"/>
</g>
<g id="Group 95">
<path id="Vector_163" d="M790.049 332.097C790.177 330.345 790.291 328.604 787.635 329.079" stroke="black" stroke-width="1.81055" stroke-linecap="round" stroke-linejoin="round"/>
<path id="Vector_164" d="M793.67 329.381C793.727 331.667 792.747 332.733 790.348 332.419C788.169 332.134 786.77 332.905 787.031 335.416" stroke="black" stroke-width="1.81055" stroke-linecap="round" stroke-linejoin="round"/>
<path id="Vector_165" d="M790.351 332.7C789.999 334.446 789.846 336.051 792.463 335.718" stroke="black" stroke-width="1.81055" stroke-linecap="round" stroke-linejoin="round"/>
</g>
<g id="Group 72">
<path id="Vector_166" d="M540.049 806.097C540.177 804.345 540.291 802.604 537.635 803.079" stroke="black" stroke-width="1.81055" stroke-linecap="round" stroke-linejoin="round"/>
<path id="Vector_167" d="M543.67 803.381C543.727 805.667 542.747 806.733 540.348 806.419C538.169 806.134 536.77 806.905 537.031 809.416" stroke="black" stroke-width="1.81055" stroke-linecap="round" stroke-linejoin="round"/>
<path id="Vector_168" d="M540.351 806.7C539.999 808.446 539.846 810.051 542.463 809.718" stroke="black" stroke-width="1.81055" stroke-linecap="round" stroke-linejoin="round"/>
</g>
<g id="Group 73">
<path id="Vector_169" d="M410.049 773.097C410.177 771.345 410.291 769.604 407.635 770.079" stroke="black" stroke-width="1.81055" stroke-linecap="round" stroke-linejoin="round"/>
<path id="Vector_170" d="M413.67 770.381C413.727 772.667 412.747 773.733 410.348 773.419C408.169 773.134 406.77 773.905 407.031 776.416" stroke="black" stroke-width="1.81055" stroke-linecap="round" stroke-linejoin="round"/>
<path id="Vector_171" d="M410.351 773.7C409.999 775.446 409.846 777.051 412.463 776.718" stroke="black" stroke-width="1.81055" stroke-linecap="round" stroke-linejoin="round"/>
</g>
<g id="Group 74">
<path id="Vector_172" d="M438.049 748.097C438.177 746.345 438.291 744.604 435.635 745.079" stroke="black" stroke-width="1.81055" stroke-linecap="round" stroke-linejoin="round"/>
<path id="Vector_173" d="M441.67 745.381C441.727 747.667 440.747 748.733 438.348 748.419C436.169 748.134 434.77 748.905 435.031 751.416" stroke="black" stroke-width="1.81055" stroke-linecap="round" stroke-linejoin="round"/>
<path id="Vector_174" d="M438.351 748.7C437.999 750.446 437.846 752.051 440.463 751.718" stroke="black" stroke-width="1.81055" stroke-linecap="round" stroke-linejoin="round"/>
</g>
<g id="Group 75">
<path id="Vector_175" d="M468.049 770.097C468.177 768.345 468.291 766.604 465.635 767.079" stroke="black" stroke-width="1.81055" stroke-linecap="round" stroke-linejoin="round"/>
<path id="Vector_176" d="M471.67 767.381C471.727 769.667 470.747 770.733 468.348 770.419C466.169 770.134 464.77 770.905 465.031 773.416" stroke="black" stroke-width="1.81055" stroke-linecap="round" stroke-linejoin="round"/>
<path id="Vector_177" d="M468.351 770.7C467.999 772.446 467.846 774.051 470.463 773.718" stroke="black" stroke-width="1.81055" stroke-linecap="round" stroke-linejoin="round"/>
</g>
<g id="Group 76">
<path id="Vector_178" d="M495.049 768.097C495.177 766.345 495.291 764.604 492.635 765.079" stroke="black" stroke-width="1.81055" stroke-linecap="round" stroke-linejoin="round"/>
<path id="Vector_179" d="M498.67 765.381C498.727 767.667 497.747 768.733 495.348 768.419C493.169 768.134 491.77 768.905 492.031 771.416" stroke="black" stroke-width="1.81055" stroke-linecap="round" stroke-linejoin="round"/>
<path id="Vector_180" d="M495.351 768.7C494.999 770.446 494.846 772.051 497.463 771.718" stroke="black" stroke-width="1.81055" stroke-linecap="round" stroke-linejoin="round"/>
</g>
<g id="Group 38">
<path id="Vector_181" d="M330.049 746.097C330.177 744.345 330.291 742.604 327.635 743.079" stroke="black" stroke-width="1.81055" stroke-linecap="round" stroke-linejoin="round"/>
<path id="Vector_182" d="M333.67 743.381C333.727 745.667 332.747 746.733 330.348 746.419C328.169 746.134 326.77 746.905 327.031 749.416" stroke="black" stroke-width="1.81055" stroke-linecap="round" stroke-linejoin="round"/>
<path id="Vector_183" d="M330.351 746.7C329.999 748.446 329.846 750.051 332.463 749.718" stroke="black" stroke-width="1.81055" stroke-linecap="round" stroke-linejoin="round"/>
</g>
<g id="Group 39">
<path id="Vector_184" d="M344.049 756.097C344.177 754.345 344.291 752.604 341.635 753.079" stroke="black" stroke-width="1.81055" stroke-linecap="round" stroke-linejoin="round"/>
<path id="Vector_185" d="M347.67 753.381C347.727 755.667 346.747 756.733 344.348 756.419C342.169 756.134 340.77 756.905 341.031 759.416" stroke="black" stroke-width="1.81055" stroke-linecap="round" stroke-linejoin="round"/>
<path id="Vector_186" d="M344.351 756.7C343.999 758.446 343.846 760.051 346.463 759.718" stroke="black" stroke-width="1.81055" stroke-linecap="round" stroke-linejoin="round"/>
</g>
<g id="Group 40">
<path id="Vector_187" d="M330.049 770.097C330.177 768.345 330.291 766.604 327.635 767.079" stroke="black" stroke-width="1.81055" stroke-linecap="round" stroke-linejoin="round"/>
<path id="Vector_188" d="M333.67 767.381C333.727 769.667 332.747 770.733 330.348 770.419C328.169 770.134 326.77 770.905 327.031 773.416" stroke="black" stroke-width="1.81055" stroke-linecap="round" stroke-linejoin="round"/>
<path id="Vector_189" d="M330.351 770.7C329.999 772.446 329.846 774.051 332.463 773.718" stroke="black" stroke-width="1.81055" stroke-linecap="round" stroke-linejoin="round"/>
</g>
<g id="Group 77">
<path id="Vector_190" d="M597.049 746.097C597.177 744.345 597.291 742.604 594.635 743.079" stroke="black" stroke-width="1.81055" stroke-linecap="round" stroke-linejoin="round"/>
<path id="Vector_191" d="M600.67 743.381C600.727 745.667 599.747 746.733 597.348 746.419C595.169 746.134 593.77 746.905 594.031 749.416" stroke="black" stroke-width="1.81055" stroke-linecap="round" stroke-linejoin="round"/>
<path id="Vector_192" d="M597.351 746.7C596.999 748.446 596.846 750.051 599.463 749.718" stroke="black" stroke-width="1.81055" stroke-linecap="round" stroke-linejoin="round"/>
</g>
<g id="Group 78">
<path id="Vector_193" d="M614.049 769.097C614.177 767.345 614.291 765.604 611.635 766.079" stroke="black" stroke-width="1.81055" stroke-linecap="round" stroke-linejoin="round"/>
<path id="Vector_194" d="M617.67 766.381C617.727 768.667 616.747 769.733 614.348 769.419C612.169 769.134 610.77 769.905 611.031 772.416" stroke="black" stroke-width="1.81055" stroke-linecap="round" stroke-linejoin="round"/>
<path id="Vector_195" d="M614.351 769.7C613.999 771.446 613.846 773.051 616.463 772.718" stroke="black" stroke-width="1.81055" stroke-linecap="round" stroke-linejoin="round"/>
</g>
<g id="Group 80">
<path id="Vector_196" d="M744.049 771.097C744.177 769.345 744.291 767.604 741.635 768.079" stroke="black" stroke-width="1.81055" stroke-linecap="round" stroke-linejoin="round"/>
<path id="Vector_197" d="M747.67 768.381C747.727 770.667 746.747 771.733 744.348 771.419C742.169 771.134 740.77 771.905 741.031 774.416" stroke="black" stroke-width="1.81055" stroke-linecap="round" stroke-linejoin="round"/>
<path id="Vector_198" d="M744.351 771.7C743.999 773.446 743.846 775.051 746.463 774.718" stroke="black" stroke-width="1.81055" stroke-linecap="round" stroke-linejoin="round"/>
</g>
<g id="Group 81">
<path id="Vector_199" d="M646.049 912.097C646.177 910.345 646.291 908.604 643.635 909.079" stroke="black" stroke-width="1.81055" stroke-linecap="round" stroke-linejoin="round"/>
<path id="Vector_200" d="M649.67 909.381C649.727 911.667 648.747 912.733 646.348 912.419C644.169 912.134 642.77 912.905 643.031 915.416" stroke="black" stroke-width="1.81055" stroke-linecap="round" stroke-linejoin="round"/>
<path id="Vector_201" d="M646.351 912.7C645.999 914.446 645.846 916.051 648.463 915.718" stroke="black" stroke-width="1.81055" stroke-linecap="round" stroke-linejoin="round"/>
</g>
<g id="Group 82">
<path id="Vector_202" d="M767.049 771.097C767.177 769.345 767.291 767.604 764.635 768.079" stroke="black" stroke-width="1.81055" stroke-linecap="round" stroke-linejoin="round"/>
<path id="Vector_203" d="M770.67 768.381C770.727 770.667 769.747 771.733 767.348 771.419C765.169 771.134 763.77 771.905 764.031 774.416" stroke="black" stroke-width="1.81055" stroke-linecap="round" stroke-linejoin="round"/>
<path id="Vector_204" d="M767.351 771.7C766.999 773.446 766.846 775.051 769.463 774.718" stroke="black" stroke-width="1.81055" stroke-linecap="round" stroke-linejoin="round"/>
</g>
<g id="Group 83">
<path id="Vector_205" d="M669.049 900.097C669.177 898.345 669.291 896.604 666.635 897.079" stroke="black" stroke-width="1.81055" stroke-linecap="round" stroke-linejoin="round"/>
<path id="Vector_206" d="M672.67 897.381C672.727 899.667 671.747 900.733 669.348 900.419C667.169 900.134 665.77 900.905 666.031 903.416" stroke="black" stroke-width="1.81055" stroke-linecap="round" stroke-linejoin="round"/>
<path id="Vector_207" d="M669.351 900.7C668.999 902.446 668.846 904.051 671.463 903.718" stroke="black" stroke-width="1.81055" stroke-linecap="round" stroke-linejoin="round"/>
</g>
<g id="Group 84">
<path id="Vector_208" d="M700.049 906.097C700.177 904.345 700.291 902.604 697.635 903.079" stroke="black" stroke-width="1.81055" stroke-linecap="round" stroke-linejoin="round"/>
<path id="Vector_209" d="M703.67 903.381C703.727 905.667 702.747 906.733 700.348 906.419C698.169 906.134 696.77 906.905 697.031 909.416" stroke="black" stroke-width="1.81055" stroke-linecap="round" stroke-linejoin="round"/>
<path id="Vector_210" d="M700.351 906.7C699.999 908.446 699.846 910.051 702.463 909.718" stroke="black" stroke-width="1.81055" stroke-linecap="round" stroke-linejoin="round"/>
</g>
<g id="Group 89">
<path id="Vector_211" d="M852.049 889.097C852.177 887.345 852.291 885.604 849.635 886.079" stroke="black" stroke-width="1.81055" stroke-linecap="round" stroke-linejoin="round"/>
<path id="Vector_212" d="M855.67 886.381C855.727 888.667 854.747 889.733 852.348 889.419C850.169 889.134 848.77 889.905 849.031 892.416" stroke="black" stroke-width="1.81055" stroke-linecap="round" stroke-linejoin="round"/>
<path id="Vector_213" d="M852.351 889.7C851.999 891.446 851.846 893.051 854.463 892.718" stroke="black" stroke-width="1.81055" stroke-linecap="round" stroke-linejoin="round"/>
</g>
<g id="Group 90">
<path id="Vector_214" d="M884.049 896.097C884.177 894.345 884.291 892.604 881.635 893.079" stroke="black" stroke-width="1.81055" stroke-linecap="round" stroke-linejoin="round"/>
<path id="Vector_215" d="M887.67 893.381C887.727 895.667 886.747 896.733 884.348 896.419C882.169 896.134 880.77 896.905 881.031 899.416" stroke="black" stroke-width="1.81055" stroke-linecap="round" stroke-linejoin="round"/>
<path id="Vector_216" d="M884.351 896.7C883.999 898.446 883.846 900.051 886.463 899.718" stroke="black" stroke-width="1.81055" stroke-linecap="round" stroke-linejoin="round"/>
</g>
<g id="Group 85">
<path id="Vector_217" d="M583.049 818.097C583.177 816.345 583.291 814.604 580.635 815.079" stroke="black" stroke-width="1.81055" stroke-linecap="round" stroke-linejoin="round"/>
<path id="Vector_218" d="M586.67 815.381C586.727 817.667 585.747 818.733 583.348 818.419C581.169 818.134 579.77 818.905 580.031 821.416" stroke="black" stroke-width="1.81055" stroke-linecap="round" stroke-linejoin="round"/>
<path id="Vector_219" d="M583.351 818.7C582.999 820.446 582.846 822.051 585.463 821.718" stroke="black" stroke-width="1.81055" stroke-linecap="round" stroke-linejoin="round"/>
</g>
<g id="Group 86">
<path id="Vector_220" d="M646.049 865.097C646.177 863.345 646.291 861.604 643.635 862.079" stroke="black" stroke-width="1.81055" stroke-linecap="round" stroke-linejoin="round"/>
<path id="Vector_221" d="M649.67 862.381C649.727 864.667 648.747 865.733 646.348 865.419C644.169 865.134 642.77 865.905 643.031 868.416" stroke="black" stroke-width="1.81055" stroke-linecap="round" stroke-linejoin="round"/>
<path id="Vector_222" d="M646.351 865.7C645.999 867.446 645.846 869.051 648.463 868.718" stroke="black" stroke-width="1.81055" stroke-linecap="round" stroke-linejoin="round"/>
</g>
<g id="Group 87">
<path id="Vector_223" d="M540.049 890.097C540.177 888.345 540.291 886.604 537.635 887.079" stroke="black" stroke-width="1.81055" stroke-linecap="round" stroke-linejoin="round"/>
<path id="Vector_224" d="M543.67 887.381C543.727 889.667 542.747 890.733 540.348 890.419C538.169 890.134 536.77 890.905 537.031 893.416" stroke="black" stroke-width="1.81055" stroke-linecap="round" stroke-linejoin="round"/>
<path id="Vector_225" d="M540.351 890.7C539.999 892.446 539.846 894.051 542.463 893.718" stroke="black" stroke-width="1.81055" stroke-linecap="round" stroke-linejoin="round"/>
</g>
<g id="Group 41">
<path id="Vector_226" d="M259.049 749.097C259.177 747.345 259.291 745.604 256.635 746.079" stroke="black" stroke-width="1.81055" stroke-linecap="round" stroke-linejoin="round"/>
<path id="Vector_227" d="M262.67 746.381C262.727 748.667 261.747 749.733 259.348 749.419C257.169 749.134 255.77 749.905 256.031 752.416" stroke="black" stroke-width="1.81055" stroke-linecap="round" stroke-linejoin="round"/>
<path id="Vector_228" d="M259.351 749.7C258.999 751.446 258.846 753.051 261.463 752.718" stroke="black" stroke-width="1.81055" stroke-linecap="round" stroke-linejoin="round"/>
</g>
<g id="Group 42">
<path id="Vector_229" d="M238.049 759.097C238.177 757.345 238.291 755.604 235.635 756.079" stroke="black" stroke-width="1.81055" stroke-linecap="round" stroke-linejoin="round"/>
<path id="Vector_230" d="M241.67 756.381C241.727 758.667 240.747 759.733 238.348 759.419C236.169 759.134 234.77 759.905 235.031 762.416" stroke="black" stroke-width="1.81055" stroke-linecap="round" stroke-linejoin="round"/>
<path id="Vector_231" d="M238.351 759.7C237.999 761.446 237.846 763.051 240.463 762.718" stroke="black" stroke-width="1.81055" stroke-linecap="round" stroke-linejoin="round"/>
</g>
<g id="Group 43">
<path id="Vector_232" d="M259.049 771.097C259.177 769.345 259.291 767.604 256.635 768.079" stroke="black" stroke-width="1.81055" stroke-linecap="round" stroke-linejoin="round"/>
<path id="Vector_233" d="M262.67 768.381C262.727 770.667 261.747 771.733 259.348 771.419C257.169 771.134 255.77 771.905 256.031 774.416" stroke="black" stroke-width="1.81055" stroke-linecap="round" stroke-linejoin="round"/>
<path id="Vector_234" d="M259.351 771.7C258.999 773.446 258.846 775.051 261.463 774.718" stroke="black" stroke-width="1.81055" stroke-linecap="round" stroke-linejoin="round"/>
</g>
<g id="Group 44">
<path id="Vector_235" d="M240.049 800.097C240.177 798.345 240.291 796.604 237.635 797.079" stroke="black" stroke-width="1.81055" stroke-linecap="round" stroke-linejoin="round"/>
<path id="Vector_236" d="M243.67 797.381C243.727 799.667 242.747 800.733 240.348 800.419C238.169 800.134 236.77 800.905 237.031 803.416" stroke="black" stroke-width="1.81055" stroke-linecap="round" stroke-linejoin="round"/>
<path id="Vector_237" d="M240.351 800.7C239.999 802.446 239.846 804.051 242.463 803.718" stroke="black" stroke-width="1.81055" stroke-linecap="round" stroke-linejoin="round"/>
</g>
<g id="Group 45">
<path id="Vector_238" d="M215.049 822.097C215.177 820.345 215.291 818.604 212.635 819.079" stroke="black" stroke-width="1.81055" stroke-linecap="round" stroke-linejoin="round"/>
<path id="Vector_239" d="M218.67 819.381C218.727 821.667 217.747 822.733 215.348 822.419C213.169 822.134 211.77 822.905 212.031 825.416" stroke="black" stroke-width="1.81055" stroke-linecap="round" stroke-linejoin="round"/>
<path id="Vector_240" d="M215.351 822.7C214.999 824.446 214.846 826.051 217.463 825.718" stroke="black" stroke-width="1.81055" stroke-linecap="round" stroke-linejoin="round"/>
</g>
<g id="Group 46">
<path id="Vector_241" d="M311.049 820.097C311.177 818.345 311.291 816.604 308.635 817.079" stroke="black" stroke-width="1.81055" stroke-linecap="round" stroke-linejoin="round"/>
<path id="Vector_242" d="M314.67 817.381C314.727 819.667 313.747 820.733 311.348 820.419C309.169 820.134 307.77 820.905 308.031 823.416" stroke="black" stroke-width="1.81055" stroke-linecap="round" stroke-linejoin="round"/>
<path id="Vector_243" d="M311.351 820.7C310.999 822.446 310.846 824.051 313.463 823.718" stroke="black" stroke-width="1.81055" stroke-linecap="round" stroke-linejoin="round"/>
</g>
<g id="Group 47">
<path id="Vector_244" d="M353.049 851.097C353.177 849.345 353.291 847.604 350.635 848.079" stroke="black" stroke-width="1.81055" stroke-linecap="round" stroke-linejoin="round"/>
<path id="Vector_245" d="M356.67 848.381C356.727 850.667 355.747 851.733 353.348 851.419C351.169 851.134 349.77 851.905 350.031 854.416" stroke="black" stroke-width="1.81055" stroke-linecap="round" stroke-linejoin="round"/>
<path id="Vector_246" d="M353.351 851.7C352.999 853.446 352.846 855.051 355.463 854.718" stroke="black" stroke-width="1.81055" stroke-linecap="round" stroke-linejoin="round"/>
</g>
<g id="Group 48">
<path id="Vector_247" d="M281.049 851.097C281.177 849.345 281.291 847.604 278.635 848.079" stroke="black" stroke-width="1.81055" stroke-linecap="round" stroke-linejoin="round"/>
<path id="Vector_248" d="M284.67 848.381C284.727 850.667 283.747 851.733 281.348 851.419C279.169 851.134 277.77 851.905 278.031 854.416" stroke="black" stroke-width="1.81055" stroke-linecap="round" stroke-linejoin="round"/>
<path id="Vector_249" d="M281.351 851.7C280.999 853.446 280.846 855.051 283.463 854.718" stroke="black" stroke-width="1.81055" stroke-linecap="round" stroke-linejoin="round"/>
</g>
<g id="Group 49">
<path id="Vector_250" d="M184.049 696.097C184.177 694.345 184.291 692.604 181.635 693.079" stroke="black" stroke-width="1.81055" stroke-linecap="round" stroke-linejoin="round"/>
<path id="Vector_251" d="M187.67 693.381C187.727 695.667 186.747 696.733 184.348 696.419C182.169 696.134 180.77 696.905 181.031 699.416" stroke="black" stroke-width="1.81055" stroke-linecap="round" stroke-linejoin="round"/>
<path id="Vector_252" d="M184.351 696.7C183.999 698.446 183.846 700.051 186.463 699.718" stroke="black" stroke-width="1.81055" stroke-linecap="round" stroke-linejoin="round"/>
</g>
<g id="Group 50">
<path id="Vector_253" d="M119.049 722.097C119.177 720.345 119.291 718.604 116.635 719.079" stroke="black" stroke-width="1.81055" stroke-linecap="round" stroke-linejoin="round"/>
<path id="Vector_254" d="M122.67 719.381C122.727 721.667 121.747 722.733 119.348 722.419C117.169 722.134 115.77 722.905 116.031 725.416" stroke="black" stroke-width="1.81055" stroke-linecap="round" stroke-linejoin="round"/>
<path id="Vector_255" d="M119.351 722.7C118.999 724.446 118.846 726.051 121.463 725.718" stroke="black" stroke-width="1.81055" stroke-linecap="round" stroke-linejoin="round"/>
</g>
<g id="Group 26">
<path id="Vector_256" d="M344.049 621.097C344.177 619.345 344.291 617.604 341.635 618.079" stroke="black" stroke-width="1.81055" stroke-linecap="round" stroke-linejoin="round"/>
<path id="Vector_257" d="M347.67 618.381C347.727 620.667 346.747 621.733 344.348 621.419C342.169 621.134 340.77 621.905 341.031 624.416" stroke="black" stroke-width="1.81055" stroke-linecap="round" stroke-linejoin="round"/>
<path id="Vector_258" d="M344.351 621.7C343.999 623.446 343.846 625.051 346.463 624.718" stroke="black" stroke-width="1.81055" stroke-linecap="round" stroke-linejoin="round"/>
</g>
<g id="Group 27">
<path id="Vector_259" d="M325.049 568.097C325.177 566.345 325.291 564.604 322.635 565.079" stroke="black" stroke-width="1.81055" stroke-linecap="round" stroke-linejoin="round"/>
<path id="Vector_260" d="M328.67 565.381C328.727 567.667 327.747 568.733 325.348 568.419C323.169 568.134 321.77 568.905 322.031 571.416" stroke="black" stroke-width="1.81055" stroke-linecap="round" stroke-linejoin="round"/>
<path id="Vector_261" d="M325.351 568.7C324.999 570.446 324.846 572.051 327.463 571.718" stroke="black" stroke-width="1.81055" stroke-linecap="round" stroke-linejoin="round"/>
</g>
<g id="Group 28">
<path id="Vector_262" d="M308.049 551.097C308.177 549.345 308.291 547.604 305.635 548.079" stroke="black" stroke-width="1.81055" stroke-linecap="round" stroke-linejoin="round"/>
<path id="Vector_263" d="M311.67 548.381C311.727 550.667 310.747 551.733 308.348 551.419C306.169 551.134 304.77 551.905 305.031 554.416" stroke="black" stroke-width="1.81055" stroke-linecap="round" stroke-linejoin="round"/>
<path id="Vector_264" d="M308.351 551.7C307.999 553.446 307.846 555.051 310.463 554.718" stroke="black" stroke-width="1.81055" stroke-linecap="round" stroke-linejoin="round"/>
</g>
<g id="Group 29">
<path id="Vector_265" d="M327.049 518.097C327.177 516.345 327.291 514.604 324.635 515.079" stroke="black" stroke-width="1.81055" stroke-linecap="round" stroke-linejoin="round"/>
<path id="Vector_266" d="M330.67 515.381C330.727 517.667 329.747 518.733 327.348 518.419C325.169 518.134 323.77 518.905 324.031 521.416" stroke="black" stroke-width="1.81055" stroke-linecap="round" stroke-linejoin="round"/>
<path id="Vector_267" d="M327.351 518.7C326.999 520.446 326.846 522.051 329.463 521.718" stroke="black" stroke-width="1.81055" stroke-linecap="round" stroke-linejoin="round"/>
</g>
<g id="Group 30">
<path id="Vector_268" d="M345.049 518.097C345.177 516.345 345.291 514.604 342.635 515.079" stroke="black" stroke-width="1.81055" stroke-linecap="round" stroke-linejoin="round"/>
<path id="Vector_269" d="M348.67 515.381C348.727 517.667 347.747 518.733 345.348 518.419C343.169 518.134 341.77 518.905 342.031 521.416" stroke="black" stroke-width="1.81055" stroke-linecap="round" stroke-linejoin="round"/>
<path id="Vector_270" d="M345.351 518.7C344.999 520.446 344.846 522.051 347.463 521.718" stroke="black" stroke-width="1.81055" stroke-linecap="round" stroke-linejoin="round"/>
</g>
<g id="Group 31">
<path id="Vector_271" d="M338.049 493.097C338.177 491.345 338.291 489.604 335.635 490.079" stroke="black" stroke-width="1.81055" stroke-linecap="round" stroke-linejoin="round"/>
<path id="Vector_272" d="M341.67 490.381C341.727 492.667 340.747 493.733 338.348 493.419C336.169 493.134 334.77 493.905 335.031 496.416" stroke="black" stroke-width="1.81055" stroke-linecap="round" stroke-linejoin="round"/>
<path id="Vector_273" d="M338.351 493.7C337.999 495.446 337.846 497.051 340.463 496.718" stroke="black" stroke-width="1.81055" stroke-linecap="round" stroke-linejoin="round"/>
</g>
<g id="Group 32">
<path id="Vector_274" d="M323.049 441.097C323.177 439.345 323.291 437.604 320.635 438.079" stroke="black" stroke-width="1.81055" stroke-linecap="round" stroke-linejoin="round"/>
<path id="Vector_275" d="M326.67 438.381C326.727 440.667 325.747 441.733 323.348 441.419C321.169 441.134 319.77 441.905 320.031 444.416" stroke="black" stroke-width="1.81055" stroke-linecap="round" stroke-linejoin="round"/>
<path id="Vector_276" d="M323.351 441.7C322.999 443.446 322.846 445.051 325.463 444.718" stroke="black" stroke-width="1.81055" stroke-linecap="round" stroke-linejoin="round"/>
</g>
<g id="Group 33">
<path id="Vector_277" d="M339.049 440.097C339.177 438.345 339.291 436.604 336.635 437.079" stroke="black" stroke-width="1.81055" stroke-linecap="round" stroke-linejoin="round"/>
<path id="Vector_278" d="M342.67 437.381C342.727 439.667 341.747 440.733 339.348 440.419C337.169 440.134 335.77 440.905 336.031 443.416" stroke="black" stroke-width="1.81055" stroke-linecap="round" stroke-linejoin="round"/>
<path id="Vector_279" d="M339.351 440.7C338.999 442.446 338.846 444.051 341.463 443.718" stroke="black" stroke-width="1.81055" stroke-linecap="round" stroke-linejoin="round"/>
</g>
</g>
<g id="城墙">
<path id="Vector_280" d="M96 1031C95.9889 1018.11 96 304.658 96 296H926L926 1076H872.5V1137.5H783V1031H96Z" stroke="black" stroke-width="2" stroke-linecap="round" stroke-linejoin="round"/>
<path id="大明宫" d="M641 53H750.5M641 53V296H808V187.554H775L750.5 53M641 53V38.5H750.5V53" stroke="black" stroke-width="2"/>
<path id="西内苑" d="M394 226H641V296H394V226Z" stroke="black" stroke-width="2"/>
<rect id="太极宫" x="394" y="296" width="236" height="122" stroke="black" stroke-width="2"/>
<rect id="东宫" x="578" y="310" width="46" height="93" stroke="black" stroke-width="2"/>
<rect id="掖庭宫" x="401" y="310" width="53" height="93" stroke="black" stroke-width="2"/>
<path id="Vector_281" d="M519 150V226H641V150H519Z" stroke="black" stroke-width="2"/>
<rect id="监作将" x="402" y="464" width="46" height="39" stroke="black" stroke-width="2"/>
<rect id="Rectangle 58" x="459" y="464" width="46" height="39" stroke="black" stroke-width="2"/>
<rect id="尚书省" x="515" y="465" width="49" height="38" stroke="black" stroke-width="2"/>
<rect id="Rectangle 60" x="573" y="465" width="46" height="38" stroke="black" stroke-width="2"/>
<rect id="太廊" x="573" y="512" width="46" height="61" stroke="black" stroke-width="2"/>
<rect id="太常寺" x="515" y="512" width="49" height="61" stroke="black" stroke-width="2"/>
<rect id="Rectangle 63" x="459" y="512" width="46" height="61" stroke="black" stroke-width="2"/>
<rect id="大社" x="402" y="512" width="46" height="61" stroke="black" stroke-width="2"/>
<rect id="皇城" x="394" y="418" width="236" height="161" stroke="black" stroke-width="2"/>
</g>
<g id="道路">
<rect id="Rectangle 78" x="195" y="299" width="12" height="726" fill="#D9D9D9"/>
<rect id="Rectangle 109" x="97" y="297" width="14" height="733" fill="#D9D9D9"/>
<rect id="Rectangle 79" x="111" y="363" width="270" height="7" fill="#D9D9D9"/>
<rect id="Rectangle 110" x="97" y="297" width="296" height="10" fill="#D9D9D9"/>
<rect id="Rectangle 111" x="97" y="1025" width="708" height="5" fill="#D9D9D9"/>
<rect id="Rectangle 81" x="100" y="419" width="293" height="10" fill="#D9D9D9"/>
<rect id="Rectangle 82" x="111" y="504" width="282" height="7" fill="#D9D9D9"/>
<rect id="Rectangle 83" x="100" y="580" width="821" height="10" fill="#D9D9D9"/>
<rect id="Rectangle 103" x="631" y="419" width="290" height="10" fill="#D9D9D9"/>
<rect id="Rectangle 104" x="631" y="504" width="186" height="7" fill="#D9D9D9"/>
<rect id="Rectangle 105" x="631" y="360" width="286" height="7" fill="#D9D9D9"/>
<rect id="Rectangle 113" x="631" y="297" width="294" height="10" fill="#D9D9D9"/>
<rect id="Rectangle 106" x="826" y="482" width="91" height="7" fill="#D9D9D9"/>
<rect id="Rectangle 107" x="826" y="635" width="91" height="7" fill="#D9D9D9"/>
<rect id="Rectangle 84" x="111" y="681" width="806" height="7" fill="#D9D9D9"/>
<rect id="Rectangle 87" x="111" y="733" width="806" height="7" fill="#D9D9D9"/>
<rect id="Rectangle 88" x="100" y="781" width="820" height="10" fill="#D9D9D9"/>
<rect id="Rectangle 89" x="111" y="833" width="806" height="7" fill="#D9D9D9"/>
<rect id="Rectangle 90" x="111" y="877" width="806" height="6" fill="#D9D9D9"/>
<rect id="Rectangle 91" x="111" y="928" width="806" height="7" fill="#D9D9D9"/>
<rect id="Rectangle 92" x="111" y="972" width="806" height="7" fill="#D9D9D9"/>
<rect id="Rectangle 85" x="111" y="636" width="84" height="4.06137" fill="#D9D9D9"/>
<rect id="Rectangle 86" x="298" y="635" width="83" height="5.07671" fill="#D9D9D9"/>
<rect id="Rectangle 100" x="393" y="635" width="329" height="4" fill="#D9D9D9"/>
<rect id="Rectangle 80" x="291" y="299" width="7" height="726" fill="#D9D9D9"/>
<rect id="Rectangle 93" x="381" y="299" width="12" height="728" fill="#D9D9D9"/>
<rect id="Rectangle 94" x="450" y="590" width="7" height="435" fill="#D9D9D9"/>
<rect id="Rectangle 95" x="506" y="590" width="10" height="435" fill="#D9D9D9"/>
<rect id="Rectangle 96" x="565" y="589" width="7" height="436" fill="#D9D9D9"/>
<rect id="Rectangle 101" x="817" y="307" width="9" height="672" fill="#D9D9D9"/>
<rect id="Rectangle 112" x="917" y="297" width="8" height="778" fill="#D9D9D9"/>
<rect id="Rectangle 97" x="631" y="307" width="7" height="720" fill="#D9D9D9"/>
<rect id="Rectangle 98" x="722" y="307" width="11" height="718" fill="#D9D9D9"/>
<rect id="Rectangle 114" x="794" y="979" width="11" height="51" fill="#D9D9D9"/>
<rect id="Rectangle 108" x="690" y="307" width="11" height="112" fill="#D9D9D9"/>
<rect id="Rectangle 101_2" x="450" y="589" width="7" height="436" fill="#D9D9D9"/>
<rect id="朱雀大街" x="506" y="580" width="10" height="450" fill="#D9D9D9"/>
</g>
<g id="城门">
<rect id="开远门" x="91" y="415" width="9" height="19" fill="black"/>
<rect id="广连门" x="443" y="421" width="7" height="17" transform="rotate(-90 443 421)" fill="black"/>
<rect id="含光门" x="457" y="576" width="6" height="7" transform="rotate(90 457 576)" fill="black"/>
<rect id="朱雀门" x="507" y="582" width="6" height="7" transform="rotate(-90 507 582)" fill="black"/>
<path id="安上门" d="M565 582V576H572V582H565Z" fill="black"/>
<path id="嘉𨠫门" d="M450.5 347H457.5V361H450.5V347Z" fill="black"/>
<rect id="玄武门" x="458" y="299" width="7" height="17" transform="rotate(-90 458 299)" fill="black"/>
<rect id="玄武门" x="687" y="57" width="7" height="17" transform="rotate(-90 687 57)" fill="black"/>
<rect id="银汉门" x="720" y="57" width="7" height="17" transform="rotate(-90 720 57)" fill="black"/>
<rect id="青霄门" x="656" y="57" width="7" height="17" transform="rotate(-90 656 57)" fill="black"/>
<rect id="重玄门" x="687" y="42" width="7" height="17" transform="rotate(-90 687 42)" fill="black"/>
<rect id="玄福门" x="598" y="299" width="7" height="17" transform="rotate(-90 598 299)" fill="black"/>
<rect id="建福门" x="653" y="299" width="7" height="17" transform="rotate(-90 653 299)" fill="black"/>
<rect id="丹凤门" x="691" y="299" width="7" height="8" transform="rotate(-90 691 299)" fill="black"/>
<rect id="兴安门" x="632.5" y="299" width="7" height="4" transform="rotate(-90 632.5 299)" fill="black"/>
<rect id="芳林门" x="383" y="299" width="7" height="8" transform="rotate(-90 383 299)" fill="black"/>
<rect id="景曜门" x="286" y="299" width="7" height="17" transform="rotate(-90 286 299)" fill="black"/>
<rect id="光化门" x="193" y="299" width="7" height="17" transform="rotate(-90 193 299)" fill="black"/>
<rect id="长乐门" x="555" y="421" width="7" height="17" transform="rotate(-90 555 421)" fill="black"/>
<rect id="嘉福门" x="594" y="421" width="7" height="17" transform="rotate(-90 594 421)" fill="black"/>
<rect id="承天门" x="502" y="421" width="7" height="17" transform="rotate(-90 502 421)" fill="black"/>
<rect id="顺义门" x="390.5" y="504" width="7" height="7" fill="black"/>
<rect id="景风门" x="626.5" y="504" width="7" height="7" fill="black"/>
<rect id="延禧门" x="626.5" y="421" width="7" height="7" fill="black"/>
<rect id="开远门" x="390.5" y="421" width="7" height="7" fill="black"/>
<rect id="金光门" x="91" y="575" width="9" height="19" fill="black"/>
<rect id="延平门" x="91" y="777" width="9" height="19" fill="black"/>
<rect id="明德门" x="521.007" y="1027.01" width="9" height="19" transform="rotate(90 521.007 1027.01)" fill="black"/>
<rect id="咎夏门" x="644" y="1027" width="9" height="19" transform="rotate(90 644 1027)" fill="black"/>
<rect id="延兴门" x="920" y="773" width="9" height="19" fill="black"/>
<rect id="春明门" x="921" y="576" width="9" height="19" fill="black"/>
<rect id="通化门" x="921" y="415" width="9" height="19" fill="black"/>
<rect id="九仙门" x="637.5" y="87" width="7" height="14" fill="black"/>
<rect id="右银台门" x="637" y="140" width="7" height="9" fill="black"/>
<rect id="左银台门" x="761" y="124" width="7" height="9" fill="black"/>
<rect id="安化门" x="397" y="1027" width="9" height="19" transform="rotate(90 397 1027)" fill="black"/>
</g>
<g id="城坊">
<path id="普宁" d="M194 371H112V418H194V371Z" stroke="black" stroke-width="2"/>
<path id="修德" d="M380 308H299V362H380V308Z" stroke="black" stroke-width="2"/>
<path id="安定" d="M290 308H208V362H290V308Z" stroke="black" stroke-width="2"/>
<path id="修真" d="M194 308H112V362H194V308Z" stroke="black" stroke-width="2"/>
<path id="休祥" d="M290 371H208V418H290V371Z" stroke="black" stroke-width="2"/>
<path id="义宁" d="M194 430H112V503H194V430Z" stroke="black" stroke-width="2"/>
<path id="金城" d="M290 430H208V503H290V430Z" stroke="black" stroke-width="2"/>
<path id="颁政" d="M380 430H299V503H380V430Z" stroke="black" stroke-width="2"/>
<path id="醴泉" d="M290 512H208V579H290V512Z" stroke="black" stroke-width="2"/>
<path id="居德" d="M194 512H112V579H194V512Z" stroke="black" stroke-width="2"/>
<path id="崇化" d="M194 689H112V732H194V689Z" stroke="black" stroke-width="2"/>
<path id="怀远" d="M290 689H208V732H290V689Z" stroke="black" stroke-width="2"/>
<path id="延康" d="M380 689H299V732H380V689Z" stroke="black" stroke-width="2"/>
<path id="豐邑" d="M194 741H112V780H194V741Z" stroke="black" stroke-width="2"/>
<path id="长寿" d="M290 741H208V780H290V741Z" stroke="black" stroke-width="2"/>
<path id="崇贤" d="M380 741H299V780H380V741Z" stroke="black" stroke-width="2"/>
<path id="待贤" d="M194 792H112V832H194V792Z" stroke="black" stroke-width="2"/>
<path id="嘉会" d="M290 792H208V832H290V792Z" stroke="black" stroke-width="2"/>
<path id="延福" d="M380 792H299V832H380V792Z" stroke="black" stroke-width="2"/>
<path id="延寿" d="M380 591H299V634H380V591Z" stroke="black" stroke-width="2"/>
<path id="光德" d="M380 641H299V680H380V641Z" stroke="black" stroke-width="2"/>
<path id="群贤" d="M194 591H112V635H194V591Z" stroke="black" stroke-width="2"/>
<path id="怀德" d="M194 641H112V680H194V641Z" stroke="black" stroke-width="2"/>
<path id="西市" d="M290 591H208V680H290V591Z" stroke="black" stroke-width="2"/>
<path id="辅兴" d="M380 371H299V418H380V371Z" stroke="black" stroke-width="2"/>
<path id="布政" d="M380 512H299V579H380V512Z" stroke="black" stroke-width="2"/>
<path id="和平" d="M194 936H112V971H194V936Z" stroke="black" stroke-width="2"/>
<path id="永阳" d="M194 980H112V1024H194V980Z" stroke="black" stroke-width="2"/>
<path id="歸義" d="M290 936H208V971H290V936Z" stroke="black" stroke-width="2"/>
<path id="大通" d="M380 936H299V971H380V936Z" stroke="black" stroke-width="2"/>
<path id="大安" d="M380 980H299V1024H380V980Z" stroke="black" stroke-width="2"/>
<path id="太平" d="M394 634V591H449V634H394Z" stroke="black" stroke-width="2"/>
<path id="通义" d="M449 640H394V680H449V640Z" stroke="black" stroke-width="2"/>
<path id="兴化" d="M449 689H394V732H449V689Z" stroke="black" stroke-width="2"/>
<path id="崇德" d="M449 741H394V780H449V741Z" stroke="black" stroke-width="2"/>
<path id="怀贞" d="M449 792H394V832H449V792Z" stroke="black" stroke-width="2"/>
<path id="宣义" d="M449 841H394V876H449V841Z" stroke="black" stroke-width="2"/>
<path id="兴安" d="M449 884H394V927H449V884Z" stroke="black" stroke-width="2"/>
<path id="昌明" d="M449 936H394V971H449V936Z" stroke="black" stroke-width="2"/>
<path id="安乐" d="M449 980H394V1024H449V980Z" stroke="black" stroke-width="2"/>
<path id="兴禄" d="M505 591H458V634H505V591Z" stroke="black" stroke-width="2"/>
<path id="殖业" d="M505 640H458V680H505V640Z" stroke="black" stroke-width="2"/>
<path id="兴乐" d="M505 689H458V732H505V689Z" stroke="black" stroke-width="2"/>
<path id="安业" d="M505 741H458V780H505V741Z" stroke="black" stroke-width="2"/>
<path id="崇业" d="M505 792H458V832H505V792Z" stroke="black" stroke-width="2"/>
<path id="永达" d="M505 841H458V876H505V841Z" stroke="black" stroke-width="2"/>
<path id="道德" d="M505 884H458V927H505V884Z" stroke="black" stroke-width="2"/>
<path id="光行" d="M505 936H458V971H505V936Z" stroke="black" stroke-width="2"/>
<path id="延祚" d="M505 980H458V1024H505V980Z" stroke="black" stroke-width="2"/>
<path id="兴道" d="M564 591H517V634H564V591Z" stroke="black" stroke-width="2"/>
<path id="开化" d="M564 640H517V680H564V640Z" stroke="black" stroke-width="2"/>
<rect id="安仁" x="517" y="689" width="47" height="43" stroke="black" stroke-width="2"/>
<rect id="光福" x="517" y="741" width="47" height="39" stroke="black" stroke-width="2"/>
<rect id="靖善" x="517" y="792" width="47" height="40" stroke="black" stroke-width="2"/>
<rect id="蘭陵" x="517" y="841" width="47" height="35" stroke="black" stroke-width="2"/>
<rect id="开明" x="517" y="884" width="47" height="43" stroke="black" stroke-width="2"/>
<rect id="保宁" x="517" y="936" width="47" height="35" stroke="black" stroke-width="2"/>
<rect id="安仪" x="517" y="980" width="47" height="44" stroke="black" stroke-width="2"/>
<rect id="安德" x="573" y="980" width="57" height="44" stroke="black" stroke-width="2"/>
<rect id="昌乐" x="573" y="936" width="57" height="35" stroke="black" stroke-width="2"/>
<rect id="大业" x="573" y="884" width="57" height="43" stroke="black" stroke-width="2"/>
<rect id="安善" x="573" y="841" width="57" height="35" stroke="black" stroke-width="2"/>
<rect id="靖安" x="573" y="792" width="57" height="40" stroke="black" stroke-width="2"/>
<rect id="永乐" x="573" y="741" width="57" height="39" stroke="black" stroke-width="2"/>
<rect id="长乐" x="573" y="689" width="57" height="43" stroke="black" stroke-width="2"/>
<rect id="崇义" x="573" y="640" width="57" height="40" stroke="black" stroke-width="2"/>
<rect id="务本" x="573" y="591" width="57" height="43" stroke="black" stroke-width="2"/>
<rect id="平康" x="639" y="591" width="82" height="43" stroke="black" stroke-width="2"/>
<rect id="宣阳" x="639" y="640" width="82" height="40" stroke="black" stroke-width="2"/>
<rect id="亲仁" x="639" y="689" width="82" height="43" stroke="black" stroke-width="2"/>
<rect id="永宁" x="639" y="741" width="82" height="39" stroke="black" stroke-width="2"/>
<rect id="永崇" x="639" y="792" width="82" height="40" stroke="black" stroke-width="2"/>
<rect id="昭国" x="639" y="841" width="82" height="35" stroke="black" stroke-width="2"/>
<rect id="昌" x="639" y="884" width="82" height="43" stroke="black" stroke-width="2"/>
<rect id="通善" x="639" y="936" width="82" height="35" stroke="black" stroke-width="2"/>
<rect id="通济" x="639" y="980" width="82" height="44" stroke="black" stroke-width="2"/>
<rect id="曲池" x="734" y="980" width="59" height="44" stroke="black" stroke-width="2"/>
<rect id="青龙" x="734" y="936" width="82" height="35" stroke="black" stroke-width="2"/>
<rect id="未知" x="827" y="936" width="89" height="35" stroke="black" stroke-width="2"/>
<rect id="修政" x="734" y="884" width="82" height="43" stroke="black" stroke-width="2"/>
<rect id="修行" x="734" y="841" width="82" height="35" stroke="black" stroke-width="2"/>
<rect id="昇升" x="734" y="792" width="82" height="40" stroke="black" stroke-width="2"/>
<rect id="宣平" x="734" y="741" width="82" height="39" stroke="black" stroke-width="2"/>
<rect id="安邑" x="734" y="689" width="82" height="43" stroke="black" stroke-width="2"/>
<rect id="东市" x="734" y="591" width="82" height="89" stroke="black" stroke-width="2"/>
<rect id="崇仁" x="639" y="512" width="82" height="67" stroke="black" stroke-width="2"/>
<rect id="永兴" x="639" y="430" width="82" height="73" stroke="black" stroke-width="2"/>
<rect id="光宅" x="639" y="308" width="50" height="51" stroke="black" stroke-width="2"/>
<rect id="永昌" x="639" y="368" width="50" height="50" stroke="black" stroke-width="2"/>
<rect id="来庭" x="702" y="368" width="19" height="50" stroke="black" stroke-width="2"/>
<rect id="翊善" x="702" y="308" width="19" height="51" stroke="black" stroke-width="2"/>
<rect id="长乐" x="734" y="308" width="82" height="51" stroke="black" stroke-width="2"/>
<rect id="大宁" x="734" y="368" width="82" height="50" stroke="black" stroke-width="2"/>
<rect id="兴宁" x="827" y="368" width="89" height="50" stroke="black" stroke-width="2"/>
<rect id="入苑" x="827" y="308" width="89" height="51" stroke="black" stroke-width="2"/>
<rect id="安兴" x="734" y="430" width="82" height="73" stroke="black" stroke-width="2"/>
<rect id="永嘉" x="827" y="430" width="89" height="51" stroke="black" stroke-width="2"/>
<rect id="胜业" x="734" y="512" width="82" height="67" stroke="black" stroke-width="2"/>
<rect id="兴庆宫" x="827" y="490" width="89" height="89" stroke="black" stroke-width="2"/>
<path id="芙蓉园" d="M806 1031V980H916V1076H872.5V1138H783V1031H806Z" stroke="black" stroke-width="2"/>
<rect id="道政" x="827" y="591" width="89" height="43" stroke="black" stroke-width="2"/>
<rect id="常乐" x="827" y="643" width="89" height="37" stroke="black" stroke-width="2"/>
<rect id="靖恭" x="827" y="689" width="89" height="43" stroke="black" stroke-width="2"/>
<rect id="新昌" x="827" y="741" width="89" height="39" stroke="black" stroke-width="2"/>
<rect id="昇道" x="827" y="792" width="89" height="40" stroke="black" stroke-width="2"/>
<rect id="立政" x="827" y="841" width="89" height="35" stroke="black" stroke-width="2"/>
<rect id="敦化" x="827" y="884" width="89" height="43" stroke="black" stroke-width="2"/>
<path id="昭行" d="M290 980H208V1024H290V980Z" stroke="black" stroke-width="2"/>
<path id="敦義" d="M380 884H299V927H380V884Z" stroke="black" stroke-width="2"/>
<path id="永和" d="M194 841H112V876H194V841Z" stroke="black" stroke-width="2"/>
<path id="永平" d="M290 841H208V876H290V841Z" stroke="black" stroke-width="2"/>
<path id="永安" d="M380 841H299V876H380V841Z" stroke="black" stroke-width="2"/>
<path id="常安" d="M194 884H112V927H194V884Z" stroke="black" stroke-width="2"/>
<path id="通轨" d="M290 884H208V927H290V884Z" stroke="black" stroke-width="2"/>
</g>
<g id="水系">
<path id="曲江池" d="M810.369 1031.29C811.567 1035.74 811.876 1040.33 811.487 1044.86C811.141 1048.89 811.471 1052.92 810.795 1056.96C810.291 1059.98 809.626 1062.97 809.099 1065.98C807.995 1072.29 806.602 1078.58 807.107 1085C807.757 1093.27 812.625 1099.27 818.507 1104.63C822.839 1108.57 826.725 1112.88 829.398 1118.19C831.116 1121.6 833.988 1123.07 837.829 1123.06C841.171 1123.05 844.495 1122.94 847.784 1122.4C852.527 1121.62 854.195 1117.78 855.572 1113.95C856.478 1111.42 857.138 1108.86 859.57 1107.35C860.602 1106.72 860.495 1105.82 860.452 1104.92C860.028 1096.02 859.65 1087.17 857.885 1078.34C855.478 1066.29 851.417 1055.01 845.025 1044.59C842.102 1039.83 839.737 1034.79 838.572 1029.45C837.263 1023.44 836.799 1017.22 836.39 1011.07C836.053 1005.99 835.009 1001.03 833.432 996.343C831.999 992.08 828.528 988.856 823.938 987.569C818.547 986.057 815.408 987.524 813.101 992.37C811.201 996.361 810.492 1000.62 810.334 1005.03C810.078 1012.19 809.825 1019.33 810.644 1026.46C810.816 1027.96 810.792 1029.52 810.218 1030.99" stroke="#3E76F1" stroke-width="3.01758" stroke-linecap="round" stroke-linejoin="round"/>
<path id="永安渠" d="M310.244 308.134C310.253 312.781 309.469 317.43 309.518 322.013C309.58 327.789 308.901 333.48 308.736 339.215C308.535 346.256 307.772 353.281 308.132 360.338M305.114 428.837C305.114 434.671 304.821 440.523 305.174 446.335C305.965 459.406 305.511 472.522 306.871 485.573C307.487 491.475 307.528 497.437 307.83 503.371M305 633C305.722 630 305.977 628.011 306.222 625.509C307.103 616.519 308.438 607.585 309.199 598.572C310 589.087 309.611 579.557 310.863 570.104C311.471 565.514 309.845 560.954 310.263 556.331C310.307 555.844 310.244 555.196 309.946 554.858C308.301 552.995 309.136 551.042 309.706 549.157C309.985 548.235 310.063 547.409 310.015 546.448C309.633 538.665 309.548 530.863 308.972 523.096C308.654 518.803 308.768 513.696 308.121 510.213C307.475 506.729 307.833 506.977 307.833 504M307.83 360.941C307.167 366.858 307.063 372.799 306.881 378.744C306.667 385.69 306.003 392.622 305.755 399.568C305.565 404.892 305.729 410.229 305.714 415.56C305.704 418.889 305.876 422.223 305.157 425.527C304.973 426.37 305.315 427.328 305.416 428.233M316.883 268C315.887 270.3 313.891 271.925 312.703 274.06C311.322 276.542 311.319 279.364 311.033 282.171C310.602 286.396 310.203 290.618 309.942 294.856M310.546 295.762C310.445 299.685 310.345 303.607 310.244 307.53M302.974 779.432C302.985 779.36 302.999 779.227 303.018 779C303.274 775.948 302.5 774 303.018 770.975C303.018 770.975 303.336 769.799 303.341 769.195C303.458 755.817 303.594 742.439 303.636 729.061C303.653 723.73 303.09 718.374 303.462 713.076C303.795 708.328 303.543 703.604 303.556 698.885C303.584 689.23 303.068 679.572 302.743 669.917C302.581 665.087 302.521 660.244 302.057 655.441C301.883 653.643 302 652.256 302 650C302.003 649.044 302.019 648.362 302.057 647C302.093 644.77 302.308 644.076 302.743 643L305 632M302.974 779.432C302.933 779.713 302.95 779.063 302.974 779.432ZM302.974 779.432C302.994 779.735 303.018 780.729 303.018 783.5M303 783.5C302.74 788.854 303.012 794.051 303 799.5C302.979 809.258 302.747 816.253 303 826C303.104 829.999 302.229 834 302.229 840.299C302.229 851 302 885.5 304 901C306 916.5 307 951 313 975M313.5 976C314.305 979.822 314.5 985 316 988.5C317.5 991 320.5 1004.8 320.5 1014C320.5 1020.5 322.206 1022.5 322.206 1025" stroke="#3E76F1" stroke-width="3.01758" stroke-linecap="round" stroke-linejoin="round"/>
<path id="龙首渠" d="M548.75 378.191C552.779 377.388 554.849 375.32 555.69 371.25C557.511 362.426 555.214 354.398 550.845 346.818C548.711 343.116 546.478 339.492 543.672 336.202C541.147 333.243 538.183 331.316 534.599 329.833C527.631 326.949 519.416 331.86 518.568 339.867C518.408 341.38 517.848 342.927 518.039 344.385C518.41 347.217 519.696 349.303 521.964 351.566C525.243 354.839 528.775 358.101 531.49 361.938C533.313 364.515 534.98 366.97 538.49 367.001C539.445 367.01 539.56 367.825 539.647 368.243C540.676 373.227 544.393 375.701 548.448 377.889M808 288.958C820.712 289.422 833.356 288.345 846.027 287.541C856.724 286.863 867.266 288.567 877.737 290.932C881.161 291.706 884.964 291.047 888.566 290.733C897.51 289.953 906.282 287.963 915.146 286.698C921.785 285.751 928.615 285.657 935.349 287.112C944.235 289.032 947.614 295.739 949.113 303.463C951.24 314.424 952.966 325.457 955.51 336.345C956.994 342.701 958.476 349.047 959.05 355.631C959.417 359.835 959.132 363.894 958.878 368.018C958.307 377.282 960.278 386.142 963.097 394.877C965.393 401.992 967.708 409.135 969.573 416.343C971.621 424.259 973.369 432.303 974.618 440.433C976.005 449.464 977.081 458.476 975.763 467.596C975.012 472.799 974.366 478.092 971.465 482.63C970.801 483.67 971.137 484.363 971.293 485.091C973.577 495.766 974.594 506.64 976.438 517.378C977.535 523.769 979.012 530.111 980.658 536.385C982.274 542.547 982.801 548.836 983.727 555.093C984.946 563.327 984.354 571.635 985.383 579.858C985.706 582.433 985.528 585.087 985.415 587.697C985.13 594.267 986.532 600.751 986.336 607.312C986.305 608.323 986.521 609.362 986.037 610.33M905.623 605.407C903.08 605.261 900.522 605.731 898.101 606.141C889.575 607.586 880.937 608.154 872.436 609.667C864.338 611.109 856.261 612.617 848.257 614.635C840.569 616.573 833.031 619.074 826.074 622.536C819.407 625.854 813.13 624.096 806.649 623.768C803.006 623.583 799.335 623.322 795.776 622.332C795.428 622.235 794.911 622.406 794.586 622.623C791.418 624.743 787.964 624.516 784.638 623.45C781.184 622.343 777.879 620.682 775.303 618.042C773.835 616.539 773.076 614.462 773.801 612.363C774.644 609.921 776.858 608.767 779.194 608.486C784.026 607.906 788.517 609.105 792.461 612.05C795.323 614.187 796.491 616.949 795.499 620.5C795.369 620.966 795.481 621.5 795.481 622.003M905.321 440.647C908.141 440.365 910.585 441.732 913.16 442.48C916.306 443.392 919.742 443.928 922.434 445.615C925.645 447.626 929.341 449.32 931.299 453.005C932.357 454.995 933.55 456.948 934.935 458.72C936.121 460.236 937.493 461.686 939.419 462.374C948.931 465.775 956.918 471.419 963.533 478.994C965.358 481.084 967.6 482.093 970.199 482.591M554 457C555.507 459.047 556.205 464.479 558.5 466C558.966 471.256 564.763 472.415 566.602 476.582C566.904 477.266 568.108 477.186 568.573 477.436C575.689 481.264 580.244 486.324 588.5 487C590.195 487.139 593.31 487.656 595 488C596.072 488.218 599.3 488.772 600 490C602.605 494.57 607.239 493.433 611.5 494M669 508.5C672.011 508.435 672.997 508.286 676.054 509.512C677.781 510.205 679.536 510.619 680.361 512.798C681.182 514.965 683.459 516.101 685.137 517.624C688.235 520.434 691.073 523.348 693.32 526.971C698.338 535.062 705.665 540.547 714.392 544.178C715.687 544.717 717.128 545.08 718.603 544.815M986.494 613.252C986.555 611.223 985.996 610.098 983.884 608.849C980.076 606.598 976.509 603.832 972.291 602.45C964.581 599.923 956.58 598.97 948.474 599.398C940.082 599.841 931.75 600.953 923.427 602.087M732 386.003C734.788 385.913 736.896 387.781 739.183 388.846C744.052 391.111 749.17 391.649 754.327 392.359C759.739 393.105 765.187 393.224 770.62 393.615C772.968 393.784 775.126 394.932 776.972 396.553C780.369 399.536 783.514 402.715 786.046 406.502C787.347 408.446 789.046 410.05 791.747 409.535C792.677 409.357 793.3 409.975 793.834 410.474C795.026 411.59 796.041 412.891 797.185 414.061C803.682 420.713 810.974 426.365 819.238 430.605C824.391 433.249 830.185 434.603 835.39 436.949C842.562 440.181 849.117 438.247 856.032 437.38C860.204 436.857 864.483 436.863 868.694 437.057C874.84 437.34 881 437.771 887.092 438.597C890.785 439.098 894.541 439.418 898.061 441.356C899.84 442.335 902.602 441.527 905.325 441.527M823.109 445C819.351 446.473 815.905 448.451 812.399 450.475C806.906 453.646 801.957 457.323 797.522 461.66C792.344 466.724 788.032 472.566 784.799 479.105C781.74 485.293 778.916 491.553 777.462 498.394C776.787 501.565 775.486 504.705 772.122 506.278C771.351 506.638 770.704 507.263 770 507.766M769.53 508.543C767.147 506.695 764.509 507.537 761.998 508.004C760.796 508.228 759.664 508.755 758.373 508.91C756.188 509.173 754.599 509.963 754.028 512.744C752.811 518.674 752.569 524.605 752.977 530.568C753.355 536.103 748.876 543.947 743 545.029C737.976 545.953 733.074 546.816 728 546.5C725.677 546.355 721.314 545.33 719 545.029M548.643 377.278C547.533 379.136 548.158 381.085 548.342 383.011C549.635 396.582 548.333 410.17 548.577 423.75C548.644 427.518 549.494 436.284 549.5 440M549.5 440.5C549.57 442.103 550 451 554 457.5M645 483.5C647.012 483.5 650.051 483.152 652 483.5C656.565 484.317 659.355 486.057 661 490.5C663.211 496.471 665.535 501.861 668.5 507.5M847 439C844 439.5 834.655 440.914 832.497 441.691C829.173 442.887 825.625 443.466 823 444.909M644.288 484C638.704 484.405 634.169 487.433 629.525 490.075C625.696 492.254 621.94 494.475 617.431 494.858C615.587 495.015 613.878 493.853 612 494.26M922.219 602.691C916.888 603.496 911.557 604.3 906.226 605.105M898.714 442C896.045 444.982 892.322 446.644 889.837 450.056C885.993 455.334 884.118 461.203 882.784 467.361C882.478 468.77 882.319 469.876 880.934 470.706C878.149 472.372 876.896 475.056 876.354 478.206C875.899 480.847 875.177 483.441 874.573 486.057M874.272 486.66C873.699 493.476 871.449 499.954 869.854 506.529C868.603 511.691 866.007 516.659 863.302 521.3C860.507 526.094 857.977 531.019 855.242 535.836C854.46 537.214 853.45 538.462 852.545 539.77M854.356 546.71C854.342 548.821 853.332 550.418 851.631 551.525C846.359 554.956 840.693 555.495 834.742 553.65C832.507 552.957 830.98 551.496 829.898 549.434C828.231 546.258 828.851 543.296 832.045 541.617C838.155 538.406 844.671 537.65 851.32 539.533C853.567 540.169 853.802 542.623 854.353 544.598C854.518 545.189 854.028 545.893 854.658 546.408" stroke="#3E76F1" stroke-width="3.01758" stroke-linecap="round" stroke-linejoin="round"/>
<path id="清明渠" d="M458.085 512C455.235 513.086 453.293 515.504 450.593 516.927C444.617 520.074 438.134 521.748 431.791 523.63C422.538 526.375 413.621 529.925 404.697 533.483C401.036 534.942 397.554 536.916 394.172 538.956M410.311 739.769C412.232 746.634 410.13 753.335 408 759.5C405.356 767.15 402.956 774.342 402.5 782.5M402 783.5C401.497 789.334 400.889 795.161 400.517 801.004C400.011 808.943 399.894 821.404 398 830.5C397.584 832.5 397.5 835.5 397.5 837.5M409.5 738.5C409.5 738.5 408.5 736.455 407 735.5C401.5 732 400.9 732.5 399.5 729C397.5 724 398.651 717.439 398.5 712C398.299 704.763 398.5 697.742 398.5 690.5C398.798 688.488 399.321 687.276 399 681.5C398.5 672.5 400.149 667.857 399.5 661C399.105 653.757 398.657 644.219 398 637C398.279 636.008 396.667 627.891 396.5 627C395 619 394.5 617.5 390.5 611.5M396.5 884C396.5 888 397.411 890 397.411 892.734C400.151 905.5 401.003 918.043 401.5 931.5M401.491 932.29C401.491 936.112 401.446 939.935 401.5 943.757C401.615 951.921 401.583 960.87 401 969C400.704 973.125 399.539 977.34 399.5 981.5M479 465.5C476.976 469.647 473.953 473.186 473.5 478C472.888 484.505 470.5 491 467.5 496.5C466.5 498 466.5 499 465.5 501M479 465C479.993 461.949 480.309 457.613 480.5 454.5C480.942 447.273 480.765 440.741 481 433.5C481.154 428.771 481.299 422.728 481.5 418C482.109 412.167 480.241 404.107 482.096 398.292C482.271 397.744 482.301 397.018 482.09 396.501C480.849 393.474 481.28 390.252 480.96 387.13C480.477 382.421 480.879 377.552 479.862 372.984C478.597 367.3 479.603 362.214 482.511 357.619C485.847 352.345 489.862 347.502 493.587 342.475C495.883 339.376 498.443 336.521 499.376 332.529C501.123 325.064 501.892 317.503 502.464 309.994C498.189 308.073 493.884 309.58 489.663 309.291C488.853 309.235 488.307 310.037 488.217 310.5C487.773 312.794 486.361 313.973 484.235 314.574C483.12 314.889 482.714 315.492 482.959 316.837C483.31 318.765 482.46 320.548 481.54 322.269C480.771 323.708 479.88 324.623 478.204 323.752C476.841 323.044 475.772 323.681 475.222 324.694C472.794 329.156 468.817 329.715 464.314 329.539C459.798 329.362 457.306 332.158 457.029 336.738C456.756 341.267 458.421 344.918 461.293 348.212C463.984 351.297 464.223 353.444 462.184 356.947C461.387 358.318 460.586 359.645 460.057 361.171C458.945 364.379 459.21 364.983 462.171 366.671C463.189 367.252 464.195 367.278 465.219 367.53C467.568 368.11 470.224 367.897 472.136 369.66C474.172 371.537 476.414 371.393 478.8 370.839M394 539C392.37 539.499 391.82 541.002 390.19 542C389.647 542.333 387.091 544.277 386.066 545.359C383.823 547.723 381.398 549.5 378.911 552C376 556 374.544 558.93 373 562.5C370.2 568.972 370.444 572.733 371 579.5C371.166 581.527 371.631 585.481 372 587.5C371.667 590.713 375.5 594.512 378.911 598C382 601.159 383.188 602.459 384.5 603.5C388 607.5 387.665 607.333 390.19 610.79M392 1014.5C391 1017 387.18 1022.27 385.5 1023.91C381.758 1027.56 379.907 1030.57 376.5 1034.5C369.96 1042.04 362.787 1049.74 358.5 1059M399.5 981C398.457 988.29 397.678 997.956 395 1005C393.609 1008.66 393.056 1011.14 392 1015M397.5 838C396.848 846.336 395.5 852.5 395.228 865C395.544 867.422 395.077 872.546 395.5 875C396.09 878.423 397.039 879.593 396.5 883.5M465.127 502C463.411 505.227 461.411 508.727 459 511.16" stroke="#3E76F1" stroke-width="3.01758" stroke-linecap="round" stroke-linejoin="round"/>
<path id="大液池" d="M743.309 124.248C747.555 125.435 751.223 127.656 754.466 130.593C756.084 132.059 757.599 131.778 758.337 129.957C759.813 126.315 762.059 122.671 760.755 118.532C759.596 114.852 756.869 112.158 753.51 110.484C752.099 109.78 750.298 110.999 749.367 112.494C748.13 114.482 746.923 116.459 746.246 118.793C745.645 120.864 744.421 122.776 742.625 124.514C741.008 124.195 739.435 123.378 737.936 122.868C735.586 122.068 734.621 119.862 734.773 117.001C735.063 111.533 731.54 107.134 726.404 106.176C722.373 105.424 718.809 107.2 715.614 109.263C713.905 110.366 712.031 111.577 710.978 113.665C708.705 118.172 704.342 119.327 699.851 119.662C694.194 120.084 689.996 123.579 685.437 126.175C682.481 127.858 683.016 131.577 683.074 134.505C683.111 136.392 682.974 139.246 685.4 139.816C688.056 140.439 690.114 142.96 693.226 142.084C695.44 141.461 697.195 142.95 698.597 144.22C703.254 148.439 708.606 149.557 714.648 148.736C716.502 148.484 717.807 147.835 718.895 146.297C721.008 143.309 723.499 140.574 725.458 137.495C728.708 132.39 733.184 129.003 738.785 126.972C740.141 126.481 741.52 126.076 742.102 124.549" stroke="#3E76F1" stroke-width="3.01758" stroke-linecap="round" stroke-linejoin="round"/>
<path id="漕渠" d="M160 600.466C168.16 600.422 184 599 200.5 600.466C218.5 600.466 241.5 610.569 250.5 610.069C254.472 609.848 263.018 603.555 268 605.069C276.187 607.556 279.202 618.284 282 621.5C284.674 624.574 298.844 639.292 302.18 641.919C322.795 665.776 335.44 661.75 358.781 641.919C359.699 643.996 376.016 630.372 375.263 652.118C374.509 673.865 380.986 677.463 388.747 679.762C396.509 682.061 440.19 667.322 456.672 652.118C473.154 636.914 491.133 648.6 505.118 648.6C519.102 648.6 517.105 641.919 531.588 641.919C546.072 641.919 557.56 667.916 575.04 663.176C592.521 658.436 609.502 652.118 611 634.024M163 600C156.5 600 145 597.5 123 584.5C112.5 580 108.5 575.07 98.3477 576.674C76.2349 580.166 71.1459 586.875 65 591M260 608C260.646 613.213 260.947 614.143 265 616C267.951 617.352 271.507 618.734 274.5 620C276.009 620.638 281.952 623.991 283.5 623.5M324.5 1025C324.634 1032.46 325.244 1041.29 324.587 1048.73C324.386 1051 324.5 1055.5 322.5 1060M578.148 218C577.784 219.584 578.133 221.068 578.748 222.528C579.996 225.493 581.378 228.365 582.202 231.545C582.875 234.143 584.717 236.275 587.14 238.002C590.744 240.572 594.219 243.38 595.45 248.149C595.977 250.188 597.722 251.892 599.881 252.686C607.081 255.337 609.436 261.068 609.842 268.091C609.877 268.699 610.034 269.299 610.135 269.902M645.742 366.767C645.087 371.882 644.718 377.035 644.108 382.141C643.428 387.84 643.473 393.557 643.523 399.204C643.572 404.88 643.366 410.57 643.504 416.258C643.879 431.781 644.781 447.259 646.036 462.726C646.527 468.773 647.201 474.813 647.665 480.846C647.979 484.936 648.326 489.076 648.462 493.203C648.536 495.417 648.659 497.629 648.759 499.842M646.044 366.163C645.351 362.262 646.705 358.518 647.049 354.705C647.785 346.54 648.586 338.338 647.093 330.283C646.237 325.663 645.643 320.48 641.216 317.278C639.389 310.365 632.647 307.509 628.712 302.29C625.641 298.218 621.849 294.418 619.16 290.245C615.464 284.508 612.308 278.094 611.04 271.109M638.5 601.5C636.5 603.5 633.548 605.098 631.5 606.5M649 500C649.796 513.468 650.887 535.24 651.164 548.727C651.228 551.844 651.101 554.965 651.197 558.08C651.272 560.501 651.197 562.5 651.197 565C651.197 567.5 651.164 568 651.5 571.5C651.5 575.5 651.157 579.298 650.5 583C649.492 588.678 646.876 593.919 643 598C641.674 599.396 639.5 600.5 638 602M631 607C629 608.5 627.064 609.783 625.329 610.907C621.403 613.453 617.986 616.553 615.026 620.218C611.904 624.083 611.731 628.639 611.436 633.219" stroke="#3E76F1" stroke-width="3.01758" stroke-linecap="round" stroke-linejoin="round"/>
</g>
<rect id="boudingbox" x="0.5" y="0.5" width="1037" height="1235" stroke="black"/>
</g>
</svg>
